<?xml version="1.0" encoding="UTF-8"?>
<svg xmlns="http://www.w3.org/2000/svg" viewBox="0 0 108 108">
    <path fill="#895b1e" d="M 10.8 0 h 86.4 a 10.8 10.8 0 0 1 10.8 10.8 v 86.4 a 10.8 10.8 0 0 1 -10.8 10.8 h -86.4 a 10.8 10.8 0 0 1 -10.8 -10.8 v -86.4 a 10.8 10.8 0 0 1 10.8 -10.8 Z" fill-opacity="1" stroke-width="0.0"/>
    <path stroke="#ff9900" stroke-linejoin="round" stroke-linecap="butt" d="M 68.3438 67.4252 c 1.021 -0.593613 2.0888 -0.498688 3.19423 -0.811024 c 1.10542 -0.312336 2.29265 -0.573055 3.43832 -1.06299 c 1.14567 -0.489941 2.18591 -1.03281 3.4357 -1.87664 c 1.24978 -0.843834 2.83377 -2.02012 4.06299 -3.18635 c 1.22922 -1.16623 2.43744 -2.54025 3.31234 -3.81102 c 0.874889 -1.27078 1.49956 -2.32415 1.93701 -3.81365 c 0.437443 -1.4895 0.729221 -3.73797 0.687664 -5.12336 c -0.0415573 -1.38539 -0.499565 -2.16798 -0.937008 -3.18898 c -0.437447 -1.021 -1.07306 -1.92651 -1.68766 -2.93701 c -0.614613 -1.0105 -1.30228 -1.88626 -2 -3.12599 c -0.697727 -1.23972 -1.55118 -2.86439 -2.18635 -4.31234 c -0.635174 -1.44794 -0.707787 -4.1671 -1.62467 -4.37533 c -0.916885 -0.208224 -2.80359 2.33421 -3.87664 3.12598 c -1.07306 0.791777 -1.66579 1.71916 -2.56168 1.62467 c -0.895889 -0.0944881 -1.35477 -0.866579 -2.81365 -2.1916 c -1.45888 -1.32502 -4.542 -4.3657 -5.93963 -5.75853 c -1.39764 -1.39283 -1.65617 -2.67498 -2.44619 -2.59843 c -0.790026 0.0765529 -0.821085 1.2266 -2.29396 3.05774 c -1.47288 1.83115 -5.06693 6.23272 -6.54331 7.92913 c -1.47638 1.69641 -1.68985 2.07218 -2.31496 2.24934 c -0.62511 0.177166 -0.831584 -0.488626 -1.4357 -1.18635 c -0.604112 -0.697725 -1.67848 -2.63517 -2.18898 -3 c -0.510499 -0.364829 -0.113736 -0.214348 -0.874016 0.811024 c -0.76028 1.02537 -2.5 3.78434 -3.68766 5.34121 c -1.18766 1.55687 -2.37577 2.83333 -3.43832 4 c -1.06255 1.16667 -2.24978 2.05206 -2.93701 3 c -0.687227 0.947943 -0.915573 1.70297 -1.18635 2.68766 c -0.270779 0.984688 -0.454943 1.97638 -0.43832 3.22047 c 0.0166229 1.24409 0.156605 2.87008 0.538058 4.24409 c 0.381452 1.37402 1.06343 2.73797 1.75066 4 c 0.687227 1.26203 1.59361 2.55249 2.3727 3.57218 c 0.77909 1.01968 1.35389 1.69204 2.30184 2.54593 c 0.947944 0.853893 2.16492 1.78346 3.38583 2.57743 c 1.22091 0.793964 2.6063 1.59274 3.93963 2.18635 c 1.33333 0.593613 2.61242 1.08355 4.06037 1.37533 c 1.44794 0.291775 3.1273 0.458881 4.6273 0.375328 c 1.5 -0.0835533 3.13342 -0.4077 4.3727 -0.87664 c 1.23928 -0.468941 2.06387 -1.15573 3.06299 -1.93701 c 0.999124 -0.781277 1.91076 -2.15704 2.93176 -2.75066 Z" stroke-width="1.0" fill="#ff9900" fill-opacity="1"/>
    <path stroke="#f9d956" stroke-linejoin="round" stroke-linecap="butt" d="M 68.4562 67.2766 c 0.390121 -0.228897 0.79813 -0.192295 1.22051 -0.312733 c 0.422382 -0.120434 0.876022 -0.220966 1.31378 -0.409889 c 0.437759 -0.188919 0.835239 -0.398251 1.31278 -0.723633 c 0.477543 -0.325382 1.08279 -0.778957 1.55247 -1.22866 c 0.469685 -0.449696 0.931347 -0.979519 1.26564 -1.46953 c 0.334293 -0.490009 0.572983 -0.896191 0.740131 -1.47054 c 0.167145 -0.574352 0.278633 -1.44136 0.262756 -1.97557 c -0.0158806 -0.534206 -0.190884 -0.835972 -0.358032 -1.22967 c -0.167149 -0.393696 -0.410015 -0.742863 -0.644856 -1.13251 c -0.234844 -0.389648 -0.497601 -0.727344 -0.764202 -1.20538 c -0.266598 -0.478035 -0.592705 -1.10451 -0.835403 -1.66284 c -0.242699 -0.558327 -0.270447 -1.60684 -0.620789 -1.68713 c -0.350342 -0.0802917 -1.07125 0.90007 -1.48126 1.20538 c -0.410015 0.305309 -0.636501 0.662909 -0.978817 0.626472 c -0.342319 -0.0364342 -0.517658 -0.334152 -1.0751 -0.845081 c -0.557438 -0.510927 -1.7355 -1.68341 -2.26953 -2.22049 c -0.534037 -0.537073 -0.63282 -1.03147 -0.93469 -1.00195 c -0.301868 0.0295181 -0.313736 0.472975 -0.876522 1.17907 c -0.562788 0.706089 -1.93608 2.40334 -2.5002 3.05747 c -0.564123 0.654137 -0.645693 0.79903 -0.884546 0.867346 c -0.238855 0.0683155 -0.317749 -0.188414 -0.54858 -0.457457 c -0.230831 -0.269043 -0.641346 -1.01612 -0.836407 -1.1568 c -0.195063 -0.140677 -0.0434589 -0.0826511 -0.333962 0.312731 c -0.290503 0.395384 -0.95525 1.45924 -1.40906 2.05957 c -0.453806 0.600327 -0.90778 1.09253 -1.31378 1.5424 c -0.406002 0.449867 -0.85964 0.791275 -1.12223 1.1568 c -0.262589 0.365524 -0.34984 0.656666 -0.453304 1.03636 c -0.103464 0.379696 -0.173834 0.762093 -0.167482 1.24181 c 0.00635147 0.479725 0.0598392 1.1067 0.205591 1.63652 c 0.145754 0.529819 0.406338 1.05576 0.668926 1.5424 c 0.262589 0.486637 0.608919 0.984241 0.90661 1.37743 c 0.297689 0.393192 0.517323 0.652451 0.879532 0.981712 c 0.362209 0.329262 0.827215 0.687702 1.29372 0.993854 c 0.466509 0.306152 0.995867 0.614162 1.50533 0.84306 c 0.509468 0.228897 0.998207 0.417816 1.55147 0.530327 c 0.553259 0.112507 1.19494 0.176945 1.76809 0.144726 c 0.573151 -0.0322189 1.19728 -0.157207 1.67081 -0.338032 c 0.47353 -0.180824 0.788603 -0.445652 1.17037 -0.74691 c 0.381763 -0.301262 0.730099 -0.831757 1.12022 -1.06065 Z" stroke-width="1.0" fill="#f9d956" fill-opacity="1"/>
    <path stroke-width="1.0" stroke="#2b59c3" stroke-linecap="butt" fill="#2b59c3" fill-opacity="1" stroke-linejoin="round" d="M 31.5118 79.6929 l 0 0 c -9.6715 -5.23583 -13.3167 -17.3629 -8.14173 -27.0866 q 5.28533 -9.9311 8.32688 -21.0769 q 8.67721 7.60341 18.555 12.9509 l 0 0 c 9.6715 5.23583 13.3167 17.3629 8.14173 27.0866 l 0 0 c -5.17495 9.72369 -17.2104 13.3618 -26.8819 8.12598 Z"/>
    <path stroke-width="1.0" stroke="#8aa5e5" fill-opacity="0" d="M 35.3021 73.6708 l 0 0 c -2.22615 -0.342484 -4.22507 -1.55527 -5.55702 -3.37157 c -1.33195 -1.8163 -1.88783 -4.08732 -1.54534 -6.31347"/>
    <path stroke="#ed254e" d="M 58.9983 50.7141 l 2.21366 -3.89407 l -0.218273 3.57516 l 2.51282 -0.582767 l -0.997992 1.91884 l 2.61393 0.551883 l -2.07568 1.56971 l 2.37484 1.88997 l -2.8328 -0.233644 l 0.777934 3.45968 l -2.45335 -2.44252 l -0.459743 3.54494 l -1.61475 -3.22402 l -1.21745 4.47482 l -0.457958 -4.01022 l -1.7563 1.33607 l 0.538249 -2.47072 l -3.29016 0.436404 l 2.13337 -1.88795 l -2.21366 -2.1216 l 2.75191 -0.670048 l -2.53185 -3.57314 l 4.12876 2.70235 l 0.618541 -2.70235 Z" fill-opacity="1" stroke-linecap="butt" stroke-width="1.0" stroke-linejoin="round" fill="#ed254e"/>
</svg>