<svg version="1.1" viewBox="0.0 0.0 96.0 96.0" fill="none" stroke="none" stroke-linecap="square" stroke-miterlimit="10" xmlns:xlink="http://www.w3.org/1999/xlink" xmlns="http://www.w3.org/2000/svg"><clipPath id="p.0"><path d="m0 0l96.0 0l0 96.0l-96.0 0l0 -96.0z" clip-rule="nonzero"/></clipPath><g clip-path="url(#p.0)"><path fill="#000000" fill-opacity="0.0" d="m0 0l96.0 0l0 96.0l-96.0 0z" fill-rule="evenodd"/><path fill="#895b1e" d="m0 10.586528l0 0c0 -5.8475027 4.7403374 -10.58784 10.58784 -10.58784l74.824326 0c2.8080673 0 5.501129 1.1155014 7.4867325 3.1011064c1.9856033 1.985605 3.1011047 4.678664 3.1011047 7.4867334l0 74.824326c0 5.847496 -4.740341 10.587837 -10.587837 10.587837l-74.824326 0c-5.8475027 0 -10.58784 -4.740341 -10.58784 -10.587837z" fill-rule="evenodd"/><path fill="#ff9900" d="m40.27176 58.989372l0 0c-6.937332 -6.441635 -8.545837 -15.425209 -3.592701 -20.065372q5.0587845 -4.7391357 8.50811 -10.972734q5.9361763 7.655554 13.021481 14.234594l0 0c6.937332 6.441635 8.545837 15.425209 3.592701 20.065372l0 0c-4.9531364 4.6401634 -14.592262 3.1797752 -21.52959 -3.26186z" fill-rule="evenodd"/><path fill="#ff9900" d="m50.86831 55.300205l0 0c-3.8949013 -5.6637306 -0.3680992 -14.193699 7.877327 -19.052223q8.279549 -4.878626 15.789398 -10.876493q2.2815933 6.6472836 6.1926117 12.334448l0 0c3.8948975 5.663727 0.3680954 14.193695 -7.8773346 19.05222l0 0c-8.245422 4.8585243 -18.087105 4.205776 -21.982002 -1.4579506z" fill-rule="evenodd"/><path fill="#ff9900" d="m45.935883 56.982635l0 0c-6.437607 -5.2952423 -6.2112236 -15.329853 0.5056381 -22.412922q6.514675 -6.8698597 12.198021 -14.423527q5.3764343 6.0505295 11.6202545 11.186377l0 0c6.437607 5.295244 6.2112274 15.329851 -0.5056381 22.412924l0 0c-6.7168655 7.0830727 -17.380669 8.532394 -23.818275 3.2371483z" fill-rule="evenodd"/><path fill="#f9dc5c" d="m54.628613 59.591316l0 0c-2.7527313 -2.4939651 -3.3909874 -5.9720726 -1.4255829 -7.7685738q2.007328 -1.834816 3.3760185 -4.2482376q2.3554764 2.963951 5.1669235 5.511112l0 0c2.7527313 2.4939613 3.3909912 5.9720726 1.4255829 7.76857l0 0c-1.9654007 1.7965012 -5.790207 1.2310944 -8.542942 -1.2628708z" fill-rule="evenodd"/><path fill="#f9dc5c" d="m58.833324 58.163006l0 0c-1.5454941 -2.1927872 -0.14606094 -5.4952774 3.1257248 -7.376316q3.2853203 -1.8888245 6.265232 -4.2109795q0.9053345 2.5735855 2.4572296 4.775444l0 0c1.5454941 2.1927872 0.14605713 5.4952774 -3.1257248 7.376316l0 0c-3.2717896 1.8810425 -7.176964 1.6283226 -8.722462 -0.56446457z" fill-rule="evenodd"/><path fill="#f9dc5c" d="m56.87614 58.81438l0 0c-2.5544434 -2.0501213 -2.4646149 -5.935154 0.20063782 -8.677456q2.585022 -2.6597557 4.840172 -5.584259q2.1333656 2.3425446 4.61092 4.3309555l0 0c2.5544434 2.0501213 2.4646149 5.935154 -0.20063782 8.677456l0 0c-2.6652527 2.7423058 -6.896652 3.3034286 -9.451092 1.2533035z" fill-rule="evenodd"/><path fill="#2b59c3" d="m23.97607 70.86297l0 0c-8.598173 -4.653076 -11.839016 -15.430393 -7.2386265 -24.071812q4.698517 -8.825745 7.402258 -18.730999q7.714283 6.7571297 16.495857 11.509453l0 0c8.598171 4.653076 11.839016 15.430393 7.2386246 24.071812l0 0c-4.6003876 8.641422 -15.299938 11.874615 -23.898113 7.221546z" fill-rule="evenodd"/><path fill="#ed254e" d="m47.707188 43.941628l1.9678345 -3.461975l-0.19403458 3.1784515l2.2337723 -0.51810455l-0.88716507 1.7059174l2.3236542 0.49064636l-1.8451767 1.3955307l2.1111145 1.6802521l-2.5182152 -0.2077179l0.6915436 3.0757828l-2.1809044 -2.1714935l-0.4086876 3.1515884l-1.4354286 -2.866272l-1.0822563 3.978283l-0.40710068 -3.5652351l-1.561264 1.1878128l0.47847748 -2.19656l-2.9247894 0.3879776l1.8964615 -1.6784592l-1.9678345 -1.8861771l2.446312 -0.5956993l-2.2506943 -3.1766548l3.6702614 2.4024887l0.5498543 -2.4024887z" fill-rule="evenodd"/><path stroke="#ed254e" stroke-width="1.0" stroke-linejoin="round" stroke-linecap="butt" d="m47.707188 43.941628l1.9678345 -3.461975l-0.19403458 3.1784515l2.2337723 -0.51810455l-0.88716507 1.7059174l2.3236542 0.49064636l-1.8451767 1.3955307l2.1111145 1.6802521l-2.5182152 -0.2077179l0.6915436 3.0757828l-2.1809044 -2.1714935l-0.4086876 3.1515884l-1.4354286 -2.866272l-1.0822563 3.978283l-0.40710068 -3.5652351l-1.561264 1.1878128l0.47847748 -2.19656l-2.9247894 0.3879776l1.8964615 -1.6784592l-1.9678345 -1.8861771l2.446312 -0.5956993l-2.2506943 -3.1766548l3.6702614 2.4024887l0.5498543 -2.4024887z" fill-rule="evenodd"/><path fill="#000000" fill-opacity="0.0" d="m27.338469 65.51004l0 0c-1.9797268 -0.3048935 -3.7572498 -1.3837433 -4.941534 -2.9992142c-1.1842842 -1.6154709 -1.6783218 -3.635231 -1.3734264 -5.614956l7.464567 1.1496048z" fill-rule="evenodd"/><path fill="#000000" fill-opacity="0.0" d="m27.338469 65.51004l0 0c-1.9797268 -0.3048935 -3.7572498 -1.3837433 -4.941534 -2.9992142c-1.1842842 -1.6154709 -1.6783218 -3.635231 -1.3734264 -5.614956" fill-rule="evenodd"/><path stroke="#8aa5e5" stroke-width="2.0" stroke-linejoin="round" stroke-linecap="butt" d="m27.338469 65.51004l0 0c-1.9797268 -0.3048935 -3.7572498 -1.3837433 -4.941534 -2.9992142c-1.1842842 -1.6154709 -1.6783218 -3.635231 -1.3734264 -5.614956" fill-rule="evenodd"/></g></svg>