<svg version="1.1" viewBox="0.0 0.0 611.5275590551181 196.53543307086613" fill="none" stroke="none" stroke-linecap="square" stroke-miterlimit="10" xmlns:xlink="http://www.w3.org/1999/xlink" xmlns="http://www.w3.org/2000/svg"><clipPath id="p.0"><path d="m0 0l611.5276 0l0 196.53543l-611.5276 0l0 -196.53543z" clip-rule="nonzero"/></clipPath><g clip-path="url(#p.0)"><path fill="#000000" fill-opacity="0.0" d="m0 0l611.5276 0l0 196.53543l-611.5276 0z" fill-rule="evenodd"/><path fill="#000000" fill-opacity="0.0" d="m202.24564 13.606299l83.055115 0l0 35.559055l-83.055115 0z" fill-rule="evenodd"/><path stroke="#ffffff" stroke-width="3.0" stroke-linejoin="round" stroke-linecap="butt" d="m202.24564 13.606299l83.055115 0l0 35.559055l-83.055115 0z" fill-rule="evenodd"/><path fill="#ffffff" d="m218.85768 32.12505l0 1.953125l1.375 0q0.484375 0 0.6875 0.1875q0.203125 0.171875 0.203125 0.484375q0 0.28125 -0.203125 0.46875q-0.203125 0.1875 -0.6875 0.1875l-2.90625 0q-0.484375 0 -0.6875 -0.1875q-0.203125 -0.1875 -0.203125 -0.484375q0 -0.296875 0.203125 -0.46875q0.203125 -0.1875 0.6875 -0.1875l0.203125 0l0 -5.218752l-0.203125 0q-0.484375 0 -0.6875 -0.1875q-0.203125 -0.1875 -0.203125 -0.484375q0 -0.296875 0.203125 -0.484375q0.203125 -0.1875 0.6875 -0.1875l6.28125 0l0 2.046875q0 0.46875 -0.1875 0.671875q-0.1875 0.203125 -0.484375 0.203125q-0.296875 0 -0.484375 -0.203125q-0.1875 -0.203125 -0.1875 -0.671875l0 -0.703125l-3.40625 0l0 1.921875l1.171875 0q0 -0.515625 0.109375 -0.671875q0.203125 -0.3125 0.5625 -0.3125q0.296875 0 0.484375 0.203125q0.1875 0.203125 0.1875 0.6875l0 1.5312519q0 0.484375 -0.1875 0.6875q-0.1875 0.203125 -0.484375 0.203125q-0.359375 0 -0.5625 -0.3125q-0.109375 -0.15625 -0.109375 -0.671875l-1.171875 0zm9.591934 -5.156252l0 7.109377l1.59375 0q0.484375 0 0.6875 0.1875q0.203125 0.171875 0.203125 0.484375q0 0.28125 -0.203125 0.46875q-0.203125 0.1875 -0.6875 0.1875l-4.53125 0q-0.484375 0 -0.6875 -0.1875q-0.203125 -0.1875 -0.203125 -0.484375q0 -0.296875 0.203125 -0.46875q0.203125 -0.1875 0.6875 -0.1875l1.59375 0l0 -5.781252l-1.0625 0q-0.484375 0 -0.703125 -0.1875q-0.203125 -0.1875 -0.203125 -0.484375q0 -0.28125 0.203125 -0.46875q0.21875 -0.1875 0.703125 -0.1875l2.40625 0zm10.795059 5.593752q0 0.765625 -0.4375 1.484375q-0.421875 0.71875 -1.265625 1.15625q-0.84375 0.421875 -1.75 0.421875q-0.921875 0 -1.75 -0.421875q-0.828125 -0.421875 -1.265625 -1.140625q-0.4375 -0.71875 -0.4375 -1.515625q0 -0.7968769 0.4375 -1.5625019q0.4375 -0.78125 1.265625 -1.21875q0.84375 -0.4375 1.75 -0.4375q0.90625 0 1.75 0.453125q0.84375 0.4375 1.265625 1.203125q0.4375 0.765625 0.4375 1.5781269zm-1.34375 0q0 -0.6406269 -0.453125 -1.1718769q-0.640625 -0.734375 -1.65625 -0.734375q-0.90625 0 -1.515625 0.578125q-0.609375 0.578125 -0.609375 1.3437519q0 0.625 0.609375 1.171875q0.625 0.53125 1.515625 0.53125q0.890625 0 1.5 -0.53125q0.609375 -0.546875 0.609375 -1.1875zm5.888809 0.390625l-0.9375 2.453125l-1.25 0l-1.125 -4.578127q-0.359375 -0.015625 -0.546875 -0.203125q-0.1875 -0.1875 -0.1875 -0.46875q0 -0.28125 0.203125 -0.46875q0.21875 -0.1875 0.6875 -0.1875l1.25 0q0.484375 0 0.6875 0.1875q0.203125 0.1875 0.203125 0.484375q0 0.296875 -0.234375 0.5q-0.171875 0.15625 -0.6875 0.15625l0.5 2.125002l0.828125 -2.171877l1.1875 0l0.828125 2.171877l0.53125 -2.125002q-0.5 0 -0.65625 -0.09375q-0.3125 -0.203125 -0.3125 -0.578125q0 -0.28125 0.203125 -0.46875q0.203125 -0.1875 0.6875 -0.1875l1.25 0q0.484375 0 0.6875 0.1875q0.21875 0.1875 0.21875 0.484375q0 0.265625 -0.1875 0.453125q-0.171875 0.1875 -0.53125 0.203125l-1.09375 4.578127l-1.234375 0l-0.96875 -2.453125zm6.591934 -1.3437519l4.3125 2.390627q0.328125 0.1875 0.4375 0.328125q0.109375 0.140625 0.109375 0.359375q0 0.28125 -0.203125 0.484375q-0.203125 0.203125 -0.46875 0.203125q-0.171875 0 -0.53125 -0.1875l-6.4375 -3.578127l6.4375 -3.578125q0.359375 -0.1875 0.515625 -0.1875q0.28125 0 0.484375 0.203125q0.203125 0.1875 0.203125 0.46875q0 0.21875 -0.109375 0.375q-0.109375 0.140625 -0.4375 0.3125l-4.3125 2.40625zm8.295059 -1.25l-1.15625 -0.375q-0.40625 -0.125 -0.515625 -0.28125q-0.15625 -0.1875 -0.15625 -0.421875q0 -0.265625 0.1875 -0.46875q0.203125 -0.203125 0.4375 -0.203125q0.15625 0 0.46875 0.109375l1.140625 0.375l0 -1.21875q0 -0.484375 0.1875 -0.6875q0.1875 -0.203125 0.484375 -0.203125q0.296875 0 0.484375 0.203125q0.1875 0.203125 0.1875 0.6875l0 1.21875l1.15625 -0.375q0.3125 -0.109375 0.453125 -0.109375q0.25 0 0.4375 0.203125q0.1875 0.1875 0.1875 0.46875q0 0.234375 -0.140625 0.40625q-0.125 0.15625 -0.53125 0.296875l-1.15625 0.375l0.71875 0.984375q0.265625 0.359375 0.265625 0.5625q0 0.2812519 -0.203125 0.4843769q-0.1875 0.1875 -0.46875 0.1875q-0.203125 0 -0.34375 -0.078125q-0.125 -0.09375 -0.328125 -0.375l-0.71875 -0.9843769l-0.703125 0.9843769q-0.203125 0.28125 -0.34375 0.375q-0.140625 0.078125 -0.328125 0.078125q-0.28125 0 -0.484375 -0.1875q-0.1875 -0.203125 -0.1875 -0.4843769q0 -0.203125 0.25 -0.5625l0.71875 -0.984375zm10.498169 1.25l-4.3125 -2.40625q-0.328125 -0.171875 -0.4375 -0.3125q-0.109375 -0.15625 -0.109375 -0.375q0 -0.28125 0.203125 -0.46875q0.203125 -0.203125 0.46875 -0.203125q0.171875 0 0.53125 0.1875l6.4375 3.578125l-6.4375 3.578127q-0.359375 0.1875 -0.53125 0.1875q-0.265625 0 -0.46875 -0.1875q-0.203125 -0.203125 -0.203125 -0.5q0 -0.21875 0.109375 -0.359375q0.109375 -0.140625 0.4375 -0.328125l4.3125 -2.390627z" fill-rule="nonzero"/><path fill="#000000" fill-opacity="0.0" d="m202.24564 31.385826l-90.55118 0" fill-rule="evenodd"/><path stroke="#ffffff" stroke-width="3.0" stroke-linejoin="round" stroke-linecap="butt" d="m202.24564 31.385826l-73.666336 0" fill-rule="evenodd"/><path fill="#ffffff" stroke="#ffffff" stroke-width="3.0" stroke-linecap="butt" d="m128.57928 31.385826l-7.1348267 -4.995861l-7.1348267 4.995861l7.1348267 4.995861z" fill-rule="evenodd"/><path fill="#000000" fill-opacity="0.0" d="m202.20473 118.81199l83.14961 0l0 35.55906l-83.14961 0z" fill-rule="evenodd"/><path stroke="#ffffff" stroke-width="3.0" stroke-linejoin="round" stroke-linecap="butt" d="m202.20473 118.81199l83.14961 0l0 35.55906l-83.14961 0z" fill-rule="evenodd"/><path fill="#ffffff" d="m218.86401 137.33073l0 1.953125l1.375 0q0.484375 0 0.6875 0.1875q0.203125 0.171875 0.203125 0.484375q0 0.28125 -0.203125 0.46875q-0.203125 0.1875 -0.6875 0.1875l-2.90625 0q-0.484375 0 -0.6875 -0.1875q-0.203125 -0.1875 -0.203125 -0.484375q0 -0.296875 0.203125 -0.46875q0.203125 -0.1875 0.6875 -0.1875l0.203125 0l0 -5.21875l-0.203125 0q-0.484375 0 -0.6875 -0.1875q-0.203125 -0.1875 -0.203125 -0.484375q0 -0.296875 0.203125 -0.484375q0.203125 -0.1875 0.6875 -0.1875l6.28125 0l0 2.046875q0 0.46875 -0.1875 0.671875q-0.1875 0.203125 -0.484375 0.203125q-0.296875 0 -0.484375 -0.203125q-0.1875 -0.203125 -0.1875 -0.671875l0 -0.703125l-3.40625 0l0 1.921875l1.171875 0q0 -0.515625 0.109375 -0.671875q0.203125 -0.3125 0.5625 -0.3125q0.296875 0 0.484375 0.203125q0.1875 0.203125 0.1875 0.6875l0 1.53125q0 0.484375 -0.1875 0.6875q-0.1875 0.203125 -0.484375 0.203125q-0.359375 0 -0.5625 -0.3125q-0.109375 -0.15625 -0.109375 -0.671875l-1.171875 0zm9.591934 -5.15625l0 7.109375l1.59375 0q0.484375 0 0.6875 0.1875q0.203125 0.171875 0.203125 0.484375q0 0.28125 -0.203125 0.46875q-0.203125 0.1875 -0.6875 0.1875l-4.53125 0q-0.484375 0 -0.6875 -0.1875q-0.203125 -0.1875 -0.203125 -0.484375q0 -0.296875 0.203125 -0.46875q0.203125 -0.1875 0.6875 -0.1875l1.59375 0l0 -5.78125l-1.0625 0q-0.484375 0 -0.703125 -0.1875q-0.203125 -0.1875 -0.203125 -0.484375q0 -0.28125 0.203125 -0.46875q0.21875 -0.1875 0.703125 -0.1875l2.40625 0zm10.795059 5.59375q0 0.765625 -0.4375 1.484375q-0.421875 0.71875 -1.265625 1.15625q-0.84375 0.421875 -1.75 0.421875q-0.921875 0 -1.75 -0.421875q-0.828125 -0.421875 -1.265625 -1.140625q-0.4375 -0.71875 -0.4375 -1.515625q0 -0.796875 0.4375 -1.5625q0.4375 -0.78125 1.265625 -1.21875q0.84375 -0.4375 1.75 -0.4375q0.90625 0 1.75 0.453125q0.84375 0.4375 1.265625 1.203125q0.4375 0.765625 0.4375 1.578125zm-1.34375 0q0 -0.640625 -0.453125 -1.171875q-0.640625 -0.734375 -1.65625 -0.734375q-0.90625 0 -1.515625 0.578125q-0.609375 0.578125 -0.609375 1.34375q0 0.625 0.609375 1.171875q0.625 0.53125 1.515625 0.53125q0.890625 0 1.5 -0.53125q0.609375 -0.546875 0.609375 -1.1875zm5.888809 0.390625l-0.9375 2.453125l-1.25 0l-1.125 -4.578125q-0.359375 -0.015625 -0.546875 -0.203125q-0.1875 -0.1875 -0.1875 -0.46875q0 -0.28125 0.203125 -0.46875q0.21875 -0.1875 0.6875 -0.1875l1.25 0q0.484375 0 0.6875 0.1875q0.203125 0.1875 0.203125 0.484375q0 0.296875 -0.234375 0.5q-0.171875 0.15625 -0.6875 0.15625l0.5 2.125l0.828125 -2.171875l1.1875 0l0.828125 2.171875l0.53125 -2.125q-0.5 0 -0.65625 -0.09375q-0.3125 -0.203125 -0.3125 -0.578125q0 -0.28125 0.203125 -0.46875q0.203125 -0.1875 0.6875 -0.1875l1.25 0q0.484375 0 0.6875 0.1875q0.21875 0.1875 0.21875 0.484375q0 0.265625 -0.1875 0.453125q-0.171875 0.1875 -0.53125 0.203125l-1.09375 4.578125l-1.234375 0l-0.96875 -2.453125zm6.591934 -1.34375l4.3125 2.390625q0.328125 0.1875 0.4375 0.328125q0.109375 0.140625 0.109375 0.359375q0 0.28125 -0.203125 0.484375q-0.203125 0.203125 -0.46875 0.203125q-0.171875 0 -0.53125 -0.1875l-6.4375 -3.578125l6.4375 -3.578125q0.359375 -0.1875 0.515625 -0.1875q0.28125 0 0.484375 0.203125q0.203125 0.1875 0.203125 0.46875q0 0.21875 -0.109375 0.375q-0.109375 0.140625 -0.4375 0.3125l-4.3125 2.40625zm8.295044 -1.25l-1.15625 -0.375q-0.40625 -0.125 -0.515625 -0.28125q-0.15625 -0.1875 -0.15625 -0.421875q0 -0.265625 0.1875 -0.46875q0.203125 -0.203125 0.4375 -0.203125q0.15625 0 0.46875 0.109375l1.140625 0.375l0 -1.21875q0 -0.484375 0.1875 -0.6875q0.1875 -0.203125 0.484375 -0.203125q0.296875 0 0.484375 0.203125q0.1875 0.203125 0.1875 0.6875l0 1.21875l1.15625 -0.375q0.3125 -0.109375 0.453125 -0.109375q0.25 0 0.4375 0.203125q0.1875 0.1875 0.1875 0.46875q0 0.234375 -0.140625 0.40625q-0.125 0.15625 -0.53125 0.296875l-1.15625 0.375l0.71875 0.984375q0.265625 0.359375 0.265625 0.5625q0 0.28125 -0.203125 0.484375q-0.1875 0.1875 -0.46875 0.1875q-0.203125 0 -0.34375 -0.078125q-0.125 -0.09375 -0.328125 -0.375l-0.71875 -0.984375l-0.703125 0.984375q-0.203125 0.28125 -0.34375 0.375q-0.140625 0.078125 -0.328125 0.078125q-0.28125 0 -0.484375 -0.1875q-0.1875 -0.203125 -0.1875 -0.484375q0 -0.203125 0.25 -0.5625l0.71875 -0.984375zm10.498199 1.25l-4.3125 -2.40625q-0.328125 -0.171875 -0.4375 -0.3125q-0.109375 -0.15625 -0.109375 -0.375q0 -0.28125 0.203125 -0.46875q0.203125 -0.203125 0.46875 -0.203125q0.171875 0 0.53125 0.1875l6.4375 3.578125l-6.4375 3.578125q-0.359375 0.1875 -0.53125 0.1875q-0.265625 0 -0.46875 -0.1875q-0.203125 -0.203125 -0.203125 -0.5q0 -0.21875 0.109375 -0.359375q0.109375 -0.140625 0.4375 -0.328125l4.3125 -2.390625z" fill-rule="nonzero"/><path fill="#000000" fill-opacity="0.0" d="m202.20473 136.59152l-90.51969 -0.12599182" fill-rule="evenodd"/><path stroke="#ffffff" stroke-width="3.0" stroke-linejoin="round" stroke-linecap="butt" d="m202.20473 136.59152l-73.63487 -0.102493286" fill-rule="evenodd"/><path fill="#ffffff" stroke="#ffffff" stroke-width="3.0" stroke-linecap="butt" d="m128.56985 136.48903l-7.1278687 -5.005783l-7.141777 4.9859314l7.1278687 5.005783z" fill-rule="evenodd"/><path fill="#000000" fill-opacity="0.0" d="m285.35434 136.59152l82.36218 -0.0315094" fill-rule="evenodd"/><path stroke="#ffffff" stroke-width="3.0" stroke-linejoin="round" stroke-linecap="butt" d="m285.35434 136.59152l82.36218 -0.0315094" fill-rule="evenodd"/><path fill="#000000" fill-opacity="0.0" d="m285.30075 31.385826l69.79529 0" fill-rule="evenodd"/><path stroke="#ffffff" stroke-width="3.0" stroke-linejoin="round" stroke-linecap="butt" d="m285.30075 31.385826l69.79529 0" fill-rule="evenodd"/><path fill="#000000" fill-opacity="0.0" d="m355.08615 13.606299l83.1496 0l0 35.559055l-83.1496 0z" fill-rule="evenodd"/><path stroke="#ffffff" stroke-width="3.0" stroke-linejoin="round" stroke-linecap="butt" d="m355.08615 13.606299l83.1496 0l0 35.559055l-83.1496 0z" fill-rule="evenodd"/><path fill="#ffffff" d="m372.1048 28.859423l0 5.218752l2.875 0l0 -1.265625q0 -0.484375 0.1875 -0.6875q0.1875 -0.2031269 0.484375 -0.2031269q0.296875 0 0.484375 0.2031269q0.1875 0.203125 0.1875 0.6875l0 2.59375l-6.328125 0q-0.46875 0 -0.6875 -0.1875q-0.203125 -0.1875 -0.203125 -0.484375q0 -0.296875 0.203125 -0.46875q0.21875 -0.1875 0.6875 -0.1875l0.78125 0l0 -5.218752l-0.78125 0q-0.46875 0 -0.6875 -0.1875q-0.203125 -0.1875 -0.203125 -0.484375q0 -0.296875 0.203125 -0.484375q0.21875 -0.1875 0.6875 -0.1875l2.890625 0q0.484375 0 0.6875 0.1875q0.203125 0.1875 0.203125 0.484375q0 0.296875 -0.203125 0.484375q-0.203125 0.1875 -0.6875 0.1875l-0.78125 0zm9.045074 -1.890625l0 1.40625l-1.59375 0l0 -1.40625l1.59375 0zm0.171875 2.53125l0 4.578127l1.609375 0q0.46875 0 0.671875 0.1875q0.21875 0.171875 0.21875 0.484375q0 0.28125 -0.21875 0.46875q-0.203125 0.1875 -0.671875 0.1875l-4.546875 0q-0.46875 0 -0.6875 -0.1875q-0.203125 -0.1875 -0.203125 -0.484375q0 -0.296875 0.203125 -0.46875q0.21875 -0.1875 0.6875 -0.1875l1.609375 0l0 -3.250002l-1.078125 0q-0.46875 0 -0.6875 -0.1875q-0.203125 -0.1875 -0.203125 -0.484375q0 -0.28125 0.203125 -0.46875q0.203125 -0.1875 0.6875 -0.1875l2.40625 0zm8.779419 1.5625q-0.328125 -0.203125 -0.6875 -0.296875q-0.34375 -0.109375 -0.734375 -0.109375q-0.78125 0 -1.234375 0.25q-0.203125 0.109375 -0.203125 0.25q0 0.140625 0.265625 0.28125q0.21875 0.109375 0.9375 0.203125q1.328125 0.1875 1.84375 0.3750019q0.6875 0.234375 1.046875 0.71875q0.375 0.46875 0.375 1.0q0 0.703125 -0.625 1.1875q-0.90625 0.703125 -2.34375 0.703125q-0.578125 0 -1.078125 -0.109375q-0.484375 -0.09375 -0.890625 -0.296875q-0.109375 0.09375 -0.21875 0.140625q-0.109375 0.046875 -0.21875 0.046875q-0.3125 0 -0.5 -0.203125q-0.1875 -0.21875 -0.1875 -0.6875l0 -0.453125q0 -0.484375 0.1875 -0.6875q0.1875 -0.203125 0.484375 -0.203125q0.234375 0 0.390625 0.140625q0.171875 0.125 0.265625 0.453125q0.296875 0.25 0.71875 0.390625q0.4375 0.125 1.0 0.125q0.921875 0 1.421875 -0.28125q0.25 -0.140625 0.25 -0.296875q0 -0.265625 -0.34375 -0.4375q-0.34375 -0.15625 -1.421875 -0.28125q-1.609375 -0.171875 -2.15625 -0.65625q-0.53125 -0.4687519 -0.53125 -1.1718769q0 -0.703125 0.59375 -1.1875q0.828125 -0.640625 2.15625 -0.640625q0.453125 0 0.875 0.09375q0.4375 0.078125 0.828125 0.25q0.125 -0.078125 0.234375 -0.125q0.109375 -0.046875 0.1875 -0.046875q0.28125 0 0.453125 0.203125q0.1875 0.203125 0.1875 0.6875l0 0.328125q0 0.4375 -0.09375 0.59375q-0.21875 0.296875 -0.578125 0.296875q-0.234375 0 -0.421875 -0.140625q-0.171875 -0.15625 -0.234375 -0.40625zm6.2325745 -0.234375l0 2.671877q0 0.4375 0.171875 0.578125q0.28125 0.203125 0.984375 0.203125q1.015625 0 1.875 -0.4375q0.34375 -0.15625 0.53125 -0.15625q0.25 0 0.4375 0.203125q0.203125 0.1875 0.203125 0.46875q0 0.25 -0.203125 0.4375q-0.328125 0.3125 -1.265625 0.578125q-0.9375 0.25 -1.578125 0.25q-1.25 0 -1.875 -0.53125q-0.609375 -0.546875 -0.609375 -1.328125l0 -2.937502l-0.484375 0q-0.484375 0 -0.6875 -0.1875q-0.203125 -0.1875 -0.203125 -0.484375q0 -0.28125 0.203125 -0.46875q0.203125 -0.1875 0.6875 -0.1875l0.484375 0l0 -1.203125q0 -0.484375 0.171875 -0.6875q0.1875 -0.203125 0.484375 -0.203125q0.296875 0 0.484375 0.203125q0.1875 0.203125 0.1875 0.6875l0 1.203125l2.46875 0q0.484375 0 0.6875 0.1875q0.203125 0.1875 0.203125 0.484375q0 0.28125 -0.203125 0.46875q-0.203125 0.1875 -0.6875 0.1875l-2.46875 0zm6.935669 0.78125l4.3125 2.390627q0.328125 0.1875 0.4375 0.328125q0.109375 0.140625 0.109375 0.359375q0 0.28125 -0.203125 0.484375q-0.203125 0.203125 -0.46875 0.203125q-0.171875 0 -0.53125 -0.1875l-6.4375 -3.578127l6.4375 -3.578125q0.359375 -0.1875 0.515625 -0.1875q0.28125 0 0.484375 0.203125q0.203125 0.1875 0.203125 0.46875q0 0.21875 -0.109375 0.375q-0.109375 0.140625 -0.4375 0.3125l-4.3125 2.40625zm8.295074 -1.25l-1.15625 -0.375q-0.40625 -0.125 -0.515625 -0.28125q-0.15625 -0.1875 -0.15625 -0.421875q0 -0.265625 0.1875 -0.46875q0.203125 -0.203125 0.4375 -0.203125q0.15625 0 0.46875 0.109375l1.140625 0.375l0 -1.21875q0 -0.484375 0.1875 -0.6875q0.1875 -0.203125 0.484375 -0.203125q0.296875 0 0.484375 0.203125q0.1875 0.203125 0.1875 0.6875l0 1.21875l1.15625 -0.375q0.3125 -0.109375 0.453125 -0.109375q0.25 0 0.4375 0.203125q0.1875 0.1875 0.1875 0.46875q0 0.234375 -0.140625 0.40625q-0.125 0.15625 -0.53125 0.296875l-1.15625 0.375l0.71875 0.984375q0.265625 0.359375 0.265625 0.5625q0 0.2812519 -0.203125 0.4843769q-0.1875 0.1875 -0.46875 0.1875q-0.203125 0 -0.34375 -0.078125q-0.125 -0.09375 -0.328125 -0.375l-0.71875 -0.9843769l-0.703125 0.9843769q-0.203125 0.28125 -0.34375 0.375q-0.140625 0.078125 -0.328125 0.078125q-0.28125 0 -0.484375 -0.1875q-0.1875 -0.203125 -0.1875 -0.4843769q0 -0.203125 0.25 -0.5625l0.71875 -0.984375zm10.498199 1.25l-4.3125305 -2.40625q-0.328125 -0.171875 -0.4375 -0.3125q-0.109375 -0.15625 -0.109375 -0.375q0 -0.28125 0.203125 -0.46875q0.203125 -0.203125 0.46875 -0.203125q0.171875 0 0.53125 0.1875l6.4375305 3.578125l-6.4375305 3.578127q-0.359375 0.1875 -0.53125 0.1875q-0.265625 0 -0.46875 -0.1875q-0.203125 -0.203125 -0.203125 -0.5q0 -0.21875 0.109375 -0.359375q0.109375 -0.140625 0.4375 -0.328125l4.3125305 -2.390627z" fill-rule="nonzero"/><path fill="#000000" fill-opacity="0.0" d="m438.23575 31.385826l57.480316 0" fill-rule="evenodd"/><path stroke="#ffffff" stroke-width="3.0" stroke-linejoin="round" stroke-linecap="butt" d="m438.23575 31.385826l57.480316 0" fill-rule="evenodd"/><path fill="#cfe2f3" d="m367.72562 136.54462l0 0c0 -15.664009 12.204651 -28.362206 27.259827 -28.362206l0 0c7.229767 0 14.163422 2.9881592 19.275635 8.307098c5.112213 5.318947 7.9842224 12.532982 7.9842224 20.055107l0 0c0 15.664017 -12.204651 28.362213 -27.259857 28.362213l0 0c-15.055176 0 -27.259827 -12.698196 -27.259827 -28.362213z" fill-rule="evenodd"/><path stroke="#4e8aeb" stroke-width="3.0" stroke-linejoin="round" stroke-linecap="butt" d="m367.72562 136.54462l0 0c0 -15.664009 12.204651 -28.362206 27.259827 -28.362206l0 0c7.229767 0 14.163422 2.9881592 19.275635 8.307098c5.112213 5.318947 7.9842224 12.532982 7.9842224 20.055107l0 0c0 15.664017 -12.204651 28.362213 -27.259857 28.362213l0 0c-15.055176 0 -27.259827 -12.698196 -27.259827 -28.362213z" fill-rule="evenodd"/><path fill="#cfe2f3" d="m412.1914 145.32274l0 0c-3.8216858 8.244156 -12.474274 12.67598 -20.972717 10.742157c-8.498444 -1.9338226 -14.653778 -9.735168 -14.919708 -18.909454c-0.26593018 -9.1742935 5.426056 -17.358444 13.7966 -19.83731c8.370544 -2.478859 17.26361 1.386055 21.555634 9.36805l-8.601135 5.1553574c-1.9510803 -4.07251 -6.150482 -6.1087723 -10.141632 -4.9175873c-3.99115 1.1911774 -6.7253723 5.296814 -6.60318 9.915176c0.122161865 4.6183624 3.068634 8.53598 7.1157837 9.461121c4.047119 0.9251404 8.131531 -1.3852997 9.863922 -5.579712z" fill-rule="evenodd"/><path stroke="#4e8aeb" stroke-width="3.0" stroke-linejoin="round" stroke-linecap="butt" d="m412.1914 145.32274l0 0c-3.8216858 8.244156 -12.474274 12.67598 -20.972717 10.742157c-8.498444 -1.9338226 -14.653778 -9.735168 -14.919708 -18.909454c-0.26593018 -9.1742935 5.426056 -17.358444 13.7966 -19.83731c8.370544 -2.478859 17.26361 1.386055 21.555634 9.36805l-8.601135 5.1553574c-1.9510803 -4.07251 -6.150482 -6.1087723 -10.141632 -4.9175873c-3.99115 1.1911774 -6.7253723 5.296814 -6.60318 9.915176c0.122161865 4.6183624 3.068634 8.53598 7.1157837 9.461121c4.047119 0.9251404 8.131531 -1.3852997 9.863922 -5.579712z" fill-rule="evenodd"/><path fill="#000000" fill-opacity="0.0" d="m311.79843 167.71422l168.189 0l0 25.700775l-168.189 0z" fill-rule="evenodd"/><path fill="#ffffff" d="m358.527 186.49858l0 1.6875l0.484375 0q0.46875 0 0.671875 0.1875q0.21875 0.171875 0.21875 0.484375q0 0.28125 -0.21875 0.46875q-0.203125 0.1875 -0.671875 0.1875l-2.03125 0q-0.484375 0 -0.6875 -0.1875q-0.203125 -0.1875 -0.203125 -0.484375q0 -0.296875 0.203125 -0.46875q0.21875 -0.1875 0.6875 -0.1875l0.203125 0l0 -5.21875l-0.203125 0q-0.484375 0 -0.6875 -0.1875q-0.203125 -0.1875 -0.203125 -0.484375q0 -0.296875 0.203125 -0.484375q0.203125 -0.1875 0.6875 -0.1875l3.015625 0q1.421875 0 2.1875 0.703125q0.78125 0.703125 0.78125 1.703125q0 0.625 -0.359375 1.140625q-0.359375 0.5 -1.09375 0.90625q0.421875 0.359375 0.90625 0.9375q0.296875 0.375 0.796875 1.171875q0.515625 0 0.671875 0.09375q0.296875 0.203125 0.296875 0.578125q0 0.28125 -0.203125 0.46875q-0.203125 0.1875 -0.6875 0.1875l-0.765625 0q-1.609375 -2.5 -2.6875 -3.015625l-1.3125 0zm0 -1.328125l1.03125 0q0.59375 0 1.046875 -0.171875q0.609375 -0.234375 0.8125 -0.5q0.21875 -0.265625 0.21875 -0.515625q0 -0.375 -0.40625 -0.6875q-0.40625 -0.328125 -1.171875 -0.328125l-1.53125 0l0 2.203125zm12.716949 2.0625l-5.46875 0q0.203125 0.53125 0.734375 0.84375q0.53125 0.3125 1.4375 0.3125q0.75 0 1.96875 -0.3125q0.515625 -0.125 0.703125 -0.125q0.265625 0 0.453125 0.1875q0.1875 0.1875 0.1875 0.46875q0 0.265625 -0.203125 0.4375q-0.265625 0.25 -1.28125 0.46875q-1.0 0.21875 -1.921875 0.21875q-1.609375 0 -2.578125 -0.90625q-0.953125 -0.90625 -0.953125 -2.234375q0 -1.40625 1.03125 -2.28125q1.046875 -0.875 2.40625 -0.875q0.8125 0 1.484375 0.28125q0.6875 0.28125 1.015625 0.609375q0.46875 0.484375 0.78125 1.203125q0.203125 0.484375 0.203125 1.140625l0 0.5625zm-1.46875 -1.328125q-0.3125 -0.578125 -0.8125 -0.859375q-0.484375 -0.28125 -1.171875 -0.28125q-0.671875 0 -1.171875 0.28125q-0.5 0.28125 -0.8125 0.859375l3.96875 0zm7.560669 -0.734375q-0.328125 -0.203125 -0.6875 -0.296875q-0.34375 -0.109375 -0.734375 -0.109375q-0.78125 0 -1.234375 0.25q-0.203125 0.109375 -0.203125 0.25q0 0.140625 0.265625 0.28125q0.21875 0.109375 0.9375 0.203125q1.328125 0.1875 1.84375 0.375q0.6875 0.234375 1.046875 0.71875q0.375 0.46875 0.375 1.0q0 0.703125 -0.625 1.1875q-0.90625 0.703125 -2.34375 0.703125q-0.578125 0 -1.078125 -0.109375q-0.484375 -0.09375 -0.890625 -0.296875q-0.109375 0.09375 -0.21875 0.140625q-0.109375 0.046875 -0.21875 0.046875q-0.3125 0 -0.5 -0.203125q-0.1875 -0.21875 -0.1875 -0.6875l0 -0.453125q0 -0.484375 0.1875 -0.6875q0.1875 -0.203125 0.484375 -0.203125q0.234375 0 0.390625 0.140625q0.171875 0.125 0.265625 0.453125q0.296875 0.25 0.71875 0.390625q0.4375 0.125 1.0 0.125q0.921875 0 1.421875 -0.28125q0.25 -0.140625 0.25 -0.296875q0 -0.265625 -0.34375 -0.4375q-0.34375 -0.15625 -1.421875 -0.28125q-1.609375 -0.171875 -2.15625 -0.65625q-0.53125 -0.46875 -0.53125 -1.171875q0 -0.703125 0.59375 -1.1875q0.828125 -0.640625 2.15625 -0.640625q0.453125 0 0.875 0.09375q0.4375 0.078125 0.828125 0.25q0.125 -0.078125 0.234375 -0.125q0.109375 -0.046875 0.1875 -0.046875q0.28125 0 0.453125 0.203125q0.1875 0.203125 0.1875 0.6875l0 0.328125q0 0.4375 -0.09375 0.59375q-0.21875 0.296875 -0.578125 0.296875q-0.234375 0 -0.421875 -0.140625q-0.171875 -0.15625 -0.234375 -0.40625zm9.388824 -1.5625l0 4.578125q0.421875 0 0.625 0.1875q0.203125 0.1875 0.203125 0.484375q0 0.28125 -0.203125 0.46875q-0.203125 0.1875 -0.6875 0.1875l-1.265625 0l0 -0.3125q-0.578125 0.265625 -1.09375 0.390625q-0.515625 0.140625 -0.984375 0.140625q-0.65625 0 -1.140625 -0.28125q-0.484375 -0.28125 -0.765625 -0.765625q-0.203125 -0.34375 -0.203125 -0.875l0 -2.875l-0.21875 0q-0.484375 0 -0.703125 -0.1875q-0.203125 -0.1875 -0.203125 -0.484375q0 -0.28125 0.203125 -0.46875q0.21875 -0.1875 0.703125 -0.1875l1.5625 0l0 3.96875q0 0.421875 0.203125 0.625q0.203125 0.1875 0.625 0.1875q0.40625 0 0.859375 -0.15625q0.46875 -0.15625 1.15625 -0.578125l0 -2.71875l-0.484375 0q-0.484375 0 -0.6875 -0.1875q-0.203125 -0.1875 -0.203125 -0.484375q0 -0.28125 0.203125 -0.46875q0.203125 -0.1875 0.6875 -0.1875l1.8125 0zm5.841919 -2.53125l0 7.109375l1.59375 0q0.484375 0 0.6875 0.1875q0.203125 0.171875 0.203125 0.484375q0 0.28125 -0.203125 0.46875q-0.203125 0.1875 -0.6875 0.1875l-4.53125 0q-0.484375 0 -0.6875 -0.1875q-0.203125 -0.1875 -0.203125 -0.484375q0 -0.296875 0.203125 -0.46875q0.203125 -0.1875 0.6875 -0.1875l1.59375 0l0 -5.78125l-1.0625 0q-0.484375 0 -0.703125 -0.1875q-0.203125 -0.1875 -0.203125 -0.484375q0 -0.28125 0.203125 -0.46875q0.21875 -0.1875 0.703125 -0.1875l2.40625 0zm6.9981995 3.859375l0 2.671875q0 0.4375 0.171875 0.578125q0.28125 0.203125 0.984375 0.203125q1.015625 0 1.875 -0.4375q0.34375 -0.15625 0.53125 -0.15625q0.25 0 0.4375 0.203125q0.203125 0.1875 0.203125 0.46875q0 0.25 -0.203125 0.4375q-0.328125 0.3125 -1.265625 0.578125q-0.9375 0.25 -1.578125 0.25q-1.25 0 -1.875 -0.53125q-0.609375 -0.546875 -0.609375 -1.328125l0 -2.9375l-0.484375 0q-0.484375 0 -0.6875 -0.1875q-0.203125 -0.1875 -0.203125 -0.484375q0 -0.28125 0.203125 -0.46875q0.203125 -0.1875 0.6875 -0.1875l0.484375 0l0 -1.203125q0 -0.484375 0.171875 -0.6875q0.1875 -0.203125 0.484375 -0.203125q0.296875 0 0.484375 0.203125q0.1875 0.203125 0.1875 0.6875l0 1.203125l2.46875 0q0.484375 0 0.6875 0.1875q0.203125 0.1875 0.203125 0.484375q0 0.28125 -0.203125 0.46875q-0.203125 0.1875 -0.6875 0.1875l-2.46875 0zm8.966919 -1.96875l0 5.21875l0.90625 0q0.484375 0 0.6875 0.1875q0.203125 0.171875 0.203125 0.484375q0 0.28125 -0.203125 0.46875q-0.203125 0.1875 -0.6875 0.1875l-3.125 0q-0.484375 0 -0.6875 -0.1875q-0.203125 -0.1875 -0.203125 -0.484375q0 -0.296875 0.203125 -0.46875q0.203125 -0.1875 0.6875 -0.1875l0.890625 0l0 -5.21875l-1.4375 0l0 1.25q0 0.484375 -0.1875 0.6875q-0.1875 0.203125 -0.484375 0.203125q-0.296875 0 -0.484375 -0.203125q-0.1875 -0.203125 -0.1875 -0.6875l0 -2.59375l6.90625 0l0 2.59375q0 0.484375 -0.1875 0.6875q-0.171875 0.203125 -0.46875 0.203125q-0.296875 0 -0.484375 -0.203125q-0.1875 -0.203125 -0.1875 -0.6875l0 -1.25l-1.46875 0zm6.6075745 6.5l-2.3125 -4.53125q-0.3125 -0.03125 -0.484375 -0.21875q-0.171875 -0.1875 -0.171875 -0.4375q0 -0.296875 0.203125 -0.484375q0.203125 -0.1875 0.6875 -0.1875l1.21875 0q0.484375 0 0.6875 0.1875q0.203125 0.1875 0.203125 0.484375q0 0.28125 -0.203125 0.46875q-0.203125 0.1875 -0.65625 0.1875l1.578125 3.0625l1.5625 -3.0625q-0.421875 0 -0.640625 -0.1875q-0.203125 -0.1875 -0.203125 -0.484375q0 -0.28125 0.203125 -0.46875q0.21875 -0.1875 0.6875 -0.1875l1.265625 0q0.46875 0 0.671875 0.1875q0.203125 0.1875 0.203125 0.484375q0 0.265625 -0.171875 0.453125q-0.171875 0.1875 -0.515625 0.203125l-3.0625 6.03125q0.5 0 0.65625 0.09375q0.3125 0.203125 0.3125 0.578125q0 0.296875 -0.203125 0.46875q-0.203125 0.1875 -0.6875 0.1875l-2.90625 0q-0.484375 0 -0.6875 -0.1875q-0.203125 -0.171875 -0.203125 -0.46875q0 -0.296875 0.203125 -0.484375q0.203125 -0.1875 0.6875 -0.1875l1.328125 0l0.75 -1.5zm7.091919 -0.6875l0 2.1875l0.796875 0q0.484375 0 0.6875 0.1875q0.203125 0.1875 0.203125 0.484375q0 0.296875 -0.203125 0.46875q-0.203125 0.1875 -0.6875 0.1875l-2.359375 0q-0.484375 0 -0.6875 -0.1875q-0.203125 -0.171875 -0.203125 -0.46875q0 -0.296875 0.203125 -0.484375q0.21875 -0.1875 0.6875 -0.1875l0.234375 0l0 -6.03125l-0.234375 0q-0.484375 0 -0.6875 -0.1875q-0.203125 -0.1875 -0.203125 -0.484375q0 -0.28125 0.203125 -0.46875q0.203125 -0.1875 0.6875 -0.1875l1.5625 0l0 0.453125q0.46875 -0.3125 0.96875 -0.46875q0.5 -0.15625 1.03125 -0.15625q1.359375 0 2.328125 0.921875q0.96875 0.921875 0.96875 2.125q0 1.3125 -1.140625 2.171875q-0.953125 0.71875 -2.140625 0.71875q-0.515625 0 -1.015625 -0.140625q-0.5 -0.15625 -1.0 -0.453125zm3.953125 -2.296875q0 -0.28125 -0.21875 -0.703125q-0.21875 -0.4375 -0.6875 -0.71875q-0.453125 -0.296875 -1.0625 -0.296875q-1.0 0 -1.59375 0.75q-0.390625 0.515625 -0.390625 0.984375q0 0.53125 0.5625 1.046875q0.578125 0.5 1.421875 0.5q0.84375 0 1.40625 -0.5q0.5625 -0.5 0.5625 -1.0625zm9.045074 0.75l-5.46875 0q0.203125 0.53125 0.734375 0.84375q0.53125 0.3125 1.4375 0.3125q0.75 0 1.96875 -0.3125q0.515625 -0.125 0.703125 -0.125q0.265625 0 0.453125 0.1875q0.1875 0.1875 0.1875 0.46875q0 0.265625 -0.203125 0.4375q-0.265625 0.25 -1.28125 0.46875q-1.0 0.21875 -1.921875 0.21875q-1.609375 0 -2.578125 -0.90625q-0.953125 -0.90625 -0.953125 -2.234375q0 -1.40625 1.03125 -2.28125q1.046875 -0.875 2.40625 -0.875q0.8125 0 1.484375 0.28125q0.6875 0.28125 1.015625 0.609375q0.46875 0.484375 0.78125 1.203125q0.203125 0.484375 0.203125 1.140625l0 0.5625zm-1.46875 -1.328125q-0.3125 -0.578125 -0.8125 -0.859375q-0.484375 -0.28125 -1.171875 -0.28125q-0.671875 0 -1.171875 0.28125q-0.5 0.28125 -0.8125 0.859375l3.96875 0z" fill-rule="nonzero"/><path fill="#ebe3fd" d="m402.81998 144.06168l0 23.65355l21.937012 0l-10.753296 -11.611557l10.753296 -12.041992z" fill-rule="evenodd"/><path stroke="#8b6bda" stroke-width="3.0" stroke-linejoin="round" stroke-linecap="butt" d="m402.81998 144.06168l0 23.65355l21.937012 0l-10.753296 -11.611557l10.753296 -12.041992z" fill-rule="evenodd"/><path fill="#cfe2f3" d="m495.72687 31.385826l0 0c0 -15.664013 12.204651 -28.362204 27.259827 -28.362204l0 0c7.2297974 0 14.163452 2.9881525 19.275635 8.307098c5.1122437 5.318944 7.984253 12.532983 7.984253 20.055107l0 0c0 15.664013 -12.204651 28.362206 -27.259888 28.362206l0 0c-15.055176 0 -27.259827 -12.698193 -27.259827 -28.362206z" fill-rule="evenodd"/><path stroke="#4e8aeb" stroke-width="3.0" stroke-linejoin="round" stroke-linecap="butt" d="m495.72687 31.385826l0 0c0 -15.664013 12.204651 -28.362204 27.259827 -28.362204l0 0c7.2297974 0 14.163452 2.9881525 19.275635 8.307098c5.1122437 5.318944 7.984253 12.532983 7.984253 20.055107l0 0c0 15.664013 -12.204651 28.362206 -27.259888 28.362206l0 0c-15.055176 0 -27.259827 -12.698193 -27.259827 -28.362206z" fill-rule="evenodd"/><path fill="#cfe2f3" d="m540.1927 40.163944l0 0c-3.8217163 8.244152 -12.474304 12.67598 -20.972717 10.742161c-8.498474 -1.9338188 -14.653778 -9.735176 -14.919708 -18.909462c-0.26593018 -9.174288 5.4260254 -17.358437 13.7966 -19.837301c8.370544 -2.4788647 17.26361 1.3860502 21.555603 9.368044l-8.601135 5.1553555c-1.9510498 -4.07251 -6.1504517 -6.1087646 -10.141602 -4.9175854c-3.99115 1.1911812 -6.725403 5.2968216 -6.6032104 9.915178c0.12219238 4.6183567 3.0686646 8.535982 7.1157837 9.461119c4.047119 0.92513657 8.131531 -1.385292 9.863953 -5.579712z" fill-rule="evenodd"/><path stroke="#4e8aeb" stroke-width="3.0" stroke-linejoin="round" stroke-linecap="butt" d="m540.1927 40.163944l0 0c-3.8217163 8.244152 -12.474304 12.67598 -20.972717 10.742161c-8.498474 -1.9338188 -14.653778 -9.735176 -14.919708 -18.909462c-0.26593018 -9.174288 5.4260254 -17.358437 13.7966 -19.837301c8.370544 -2.4788647 17.26361 1.3860502 21.555603 9.368044l-8.601135 5.1553555c-1.9510498 -4.07251 -6.1504517 -6.1087646 -10.141602 -4.9175854c-3.99115 1.1911812 -6.725403 5.2968216 -6.6032104 9.915178c0.12219238 4.6183567 3.0686646 8.535982 7.1157837 9.461119c4.047119 0.92513657 8.131531 -1.385292 9.863953 -5.579712z" fill-rule="evenodd"/><path fill="#000000" fill-opacity="0.0" d="m440.50394 62.55542l168.189 0l0 25.700783l-168.189 0z" fill-rule="evenodd"/><path fill="#ffffff" d="m513.2427 77.80854l0 5.21875l0.90625 0q0.484375 0 0.6875 0.1875q0.203125 0.171875 0.203125 0.484375q0 0.28125 -0.203125 0.46875q-0.203125 0.1875 -0.6875 0.1875l-3.125 0q-0.484375 0 -0.6875 -0.1875q-0.203125 -0.1875 -0.203125 -0.484375q0 -0.296875 0.203125 -0.46875q0.203125 -0.1875 0.6875 -0.1875l0.890625 0l0 -5.21875l-1.4375 0l0 1.25q0 0.484375 -0.1875 0.6875q-0.1875 0.203125 -0.484375 0.203125q-0.296875 0 -0.484375 -0.203125q-0.1875 -0.203125 -0.1875 -0.6875l0 -2.59375l6.90625 0l0 2.59375q0 0.484375 -0.1875 0.6875q-0.171875 0.203125 -0.46875 0.203125q-0.296875 0 -0.484375 -0.203125q-0.1875 -0.203125 -0.1875 -0.6875l0 -1.25l-1.46875 0zm6.607544 6.5l-2.3125 -4.53125q-0.3125 -0.03125 -0.484375 -0.21875q-0.171875 -0.1875 -0.171875 -0.4375q0 -0.296875 0.203125 -0.484375q0.203125 -0.1875 0.6875 -0.1875l1.21875 0q0.484375 0 0.6875 0.1875q0.203125 0.1875 0.203125 0.484375q0 0.28125 -0.203125 0.46875q-0.203125 0.1875 -0.65625 0.1875l1.578125 3.0625l1.5625 -3.0625q-0.421875 0 -0.640625 -0.1875q-0.203125 -0.1875 -0.203125 -0.484375q0 -0.28125 0.203125 -0.46875q0.21875 -0.1875 0.6875 -0.1875l1.265625 0q0.46875 0 0.671875 0.1875q0.203125 0.1875 0.203125 0.484375q0 0.265625 -0.171875 0.453125q-0.171875 0.1875 -0.515625 0.203125l-3.0625 6.03125q0.5 0 0.65625 0.09375q0.3125 0.203125 0.3125 0.578125q0 0.296875 -0.203125 0.46875q-0.203125 0.1875 -0.6875 0.1875l-2.90625 0q-0.484375 0 -0.6875 -0.1875q-0.203125 -0.171875 -0.203125 -0.46875q0 -0.296875 0.203125 -0.484375q0.203125 -0.1875 0.6875 -0.1875l1.328125 0l0.75 -1.5zm7.09198 -0.6875l0 2.1875l0.796875 0q0.484375 0 0.6875 0.1875q0.203125 0.1875 0.203125 0.484375q0 0.296875 -0.203125 0.46875q-0.203125 0.1875 -0.6875 0.1875l-2.359375 0q-0.484375 0 -0.6875 -0.1875q-0.203125 -0.171875 -0.203125 -0.46875q0 -0.296875 0.203125 -0.484375q0.21875 -0.1875 0.6875 -0.1875l0.234375 0l0 -6.03125l-0.234375 0q-0.484375 0 -0.6875 -0.1875q-0.203125 -0.1875 -0.203125 -0.484375q0 -0.28125 0.203125 -0.46875q0.203125 -0.1875 0.6875 -0.1875l1.5625 0l0 0.453125q0.46875 -0.3125 0.96875 -0.46875q0.5 -0.15625 1.03125 -0.15625q1.359375 0 2.328125 0.921875q0.96875 0.921875 0.96875 2.125q0 1.3125 -1.140625 2.171875q-0.953125 0.71875 -2.140625 0.71875q-0.515625 0 -1.015625 -0.140625q-0.5 -0.15625 -1.0 -0.453125zm3.953125 -2.296875q0 -0.28125 -0.21875 -0.703125q-0.21875 -0.4375 -0.6875 -0.71875q-0.453125 -0.296875 -1.0625 -0.296875q-1.0 0 -1.59375 0.75q-0.390625 0.515625 -0.390625 0.984375q0 0.53125 0.5625 1.046875q0.578125 0.5 1.421875 0.5q0.84375 0 1.40625 -0.5q0.5625 -0.5 0.5625 -1.0625zm9.045044 0.75l-5.46875 0q0.203125 0.53125 0.734375 0.84375q0.53125 0.3125 1.4375 0.3125q0.75 0 1.96875 -0.3125q0.515625 -0.125 0.703125 -0.125q0.265625 0 0.453125 0.1875q0.1875 0.1875 0.1875 0.46875q0 0.265625 -0.203125 0.4375q-0.265625 0.25 -1.28125 0.46875q-1.0 0.21875 -1.921875 0.21875q-1.609375 0 -2.578125 -0.90625q-0.953125 -0.90625 -0.953125 -2.234375q0 -1.40625 1.03125 -2.28125q1.046875 -0.875 2.40625 -0.875q0.8125 0 1.484375 0.28125q0.6875 0.28125 1.015625 0.609375q0.46875 0.484375 0.78125 1.203125q0.203125 0.484375 0.203125 1.140625l0 0.5625zm-1.46875 -1.328125q-0.3125 -0.578125 -0.8125 -0.859375q-0.484375 -0.28125 -1.171875 -0.28125q-0.671875 0 -1.171875 0.28125q-0.5 0.28125 -0.8125 0.859375l3.96875 0z" fill-rule="nonzero"/><path fill="#ebe3fd" d="m530.8212 38.902885l0 23.653545l21.937012 0l-10.753235 -11.611549l10.753235 -12.041996z" fill-rule="evenodd"/><path stroke="#8b6bda" stroke-width="3.0" stroke-linejoin="round" stroke-linecap="butt" d="m530.8212 38.902885l0 23.653545l21.937012 0l-10.753235 -11.611549l10.753235 -12.041996z" fill-rule="evenodd"/><path fill="#000000" fill-opacity="0.0" d="m3.023622 62.721786l168.09448 0l0 25.700783l-168.09448 0z" fill-rule="evenodd"/><path fill="#ffffff" d="m31.725107 77.97491l0 5.21875l0.9062481 0q0.484375 0 0.6875 0.1875q0.203125 0.171875 0.203125 0.484375q0 0.28125 -0.203125 0.46875q-0.203125 0.1875 -0.6875 0.1875l-3.124998 0q-0.484375 0 -0.6875 -0.1875q-0.203125 -0.1875 -0.203125 -0.484375q0 -0.296875 0.203125 -0.46875q0.203125 -0.1875 0.6875 -0.1875l0.890625 0l0 -5.21875l-1.4375 0l0 1.25q0 0.484375 -0.1875 0.6875q-0.1875 0.203125 -0.484375 0.203125q-0.296875 0 -0.484375 -0.203125q-0.1875 -0.203125 -0.1875 -0.6875l0 -2.59375l6.906248 0l0 2.59375q0 0.484375 -0.1875 0.6875q-0.171875 0.203125 -0.46875 0.203125q-0.296875 0 -0.484375 -0.203125q-0.1875 -0.203125 -0.1875 -0.6875l0 -1.25l-1.4687481 0zm6.6075573 6.5l-2.3125 -4.53125q-0.3125 -0.03125 -0.484375 -0.21875q-0.171875 -0.1875 -0.171875 -0.4375q0 -0.296875 0.203125 -0.484375q0.203125 -0.1875 0.6875 -0.1875l1.21875 0q0.484375 0 0.6875 0.1875q0.203125 0.1875 0.203125 0.484375q0 0.28125 -0.203125 0.46875q-0.203125 0.1875 -0.65625 0.1875l1.578125 3.0625l1.5625 -3.0625q-0.421875 0 -0.640625 -0.1875q-0.203125 -0.1875 -0.203125 -0.484375q0 -0.28125 0.203125 -0.46875q0.21875 -0.1875 0.6875 -0.1875l1.265625 0q0.46875 0 0.671875 0.1875q0.203125 0.1875 0.203125 0.484375q0 0.265625 -0.171875 0.453125q-0.171875 0.1875 -0.515625 0.203125l-3.0625 6.03125q0.5 0 0.65625 0.09375q0.3125 0.203125 0.3125 0.578125q0 0.296875 -0.203125 0.46875q-0.203125 0.1875 -0.6875 0.1875l-2.90625 0q-0.484375 0 -0.6875 -0.1875q-0.203125 -0.171875 -0.203125 -0.46875q0 -0.296875 0.203125 -0.484375q0.203125 -0.1875 0.6875 -0.1875l1.328125 0l0.75 -1.5zm7.091934 -0.6875l0 2.1875l0.796875 0q0.484375 0 0.6875 0.1875q0.203125 0.1875 0.203125 0.484375q0 0.296875 -0.203125 0.46875q-0.203125 0.1875 -0.6875 0.1875l-2.359375 0q-0.484375 0 -0.6875 -0.1875q-0.203125 -0.171875 -0.203125 -0.46875q0 -0.296875 0.203125 -0.484375q0.21875 -0.1875 0.6875 -0.1875l0.234375 0l0 -6.03125l-0.234375 0q-0.484375 0 -0.6875 -0.1875q-0.203125 -0.1875 -0.203125 -0.484375q0 -0.28125 0.203125 -0.46875q0.203125 -0.1875 0.6875 -0.1875l1.5625 0l0 0.453125q0.46875 -0.3125 0.96875 -0.46875q0.5 -0.15625 1.03125 -0.15625q1.359375 0 2.328125 0.921875q0.96875 0.921875 0.96875 2.125q0 1.3125 -1.140625 2.171875q-0.953125 0.71875 -2.140625 0.71875q-0.515625 0 -1.015625 -0.140625q-0.5 -0.15625 -1.0 -0.453125zm3.953125 -2.296875q0 -0.28125 -0.21875 -0.703125q-0.21875 -0.4375 -0.6875 -0.71875q-0.453125 -0.296875 -1.0625 -0.296875q-1.0 0 -1.59375 0.75q-0.390625 0.515625 -0.390625 0.984375q0 0.53125 0.5625 1.046875q0.578125 0.5 1.421875 0.5q0.84375 0 1.40625 -0.5q0.5625 -0.5 0.5625 -1.0625zm9.045059 0.75l-5.46875 0q0.203125 0.53125 0.734375 0.84375q0.53125 0.3125 1.4375 0.3125q0.75 0 1.96875 -0.3125q0.515625 -0.125 0.703125 -0.125q0.265625 0 0.453125 0.1875q0.1875 0.1875 0.1875 0.46875q0 0.265625 -0.203125 0.4375q-0.265625 0.25 -1.28125 0.46875q-1.0 0.21875 -1.921875 0.21875q-1.609375 0 -2.578125 -0.90625q-0.953125 -0.90625 -0.953125 -2.234375q0 -1.40625 1.03125 -2.28125q1.046875 -0.875 2.40625 -0.875q0.8125 0 1.484375 0.28125q0.6875 0.28125 1.015625 0.609375q0.46875 0.484375 0.78125 1.203125q0.203125 0.484375 0.203125 1.140625l0 0.5625zm-1.46875 -1.328125q-0.3125 -0.578125 -0.8125 -0.859375q-0.484375 -0.28125 -1.171875 -0.28125q-0.671875 0 -1.171875 0.28125q-0.5 0.28125 -0.8125 0.859375l3.96875 0zm7.560684 -0.734375q-0.328125 -0.203125 -0.6875 -0.296875q-0.34375 -0.109375 -0.734375 -0.109375q-0.78125 0 -1.234375 0.25q-0.203125 0.109375 -0.203125 0.25q0 0.140625 0.265625 0.28125q0.21875 0.109375 0.9375 0.203125q1.328125 0.1875 1.84375 0.375q0.6875 0.234375 1.046875 0.71875q0.375 0.46875 0.375 1.0q0 0.703125 -0.625 1.1875q-0.90625 0.703125 -2.34375 0.703125q-0.578125 0 -1.078125 -0.109375q-0.484375 -0.09375 -0.890625 -0.296875q-0.109375 0.09375 -0.21875 0.140625q-0.109375 0.046875 -0.21875 0.046875q-0.3125 0 -0.5 -0.203125q-0.1875 -0.21875 -0.1875 -0.6875l0 -0.453125q0 -0.484375 0.1875 -0.6875q0.1875 -0.203125 0.484375 -0.203125q0.234375 0 0.390625 0.140625q0.171875 0.125 0.265625 0.453125q0.296875 0.25 0.71875 0.390625q0.4375 0.125 1.0 0.125q0.921875 0 1.421875 -0.28125q0.25 -0.140625 0.25 -0.296875q0 -0.265625 -0.34375 -0.4375q-0.34375 -0.15625 -1.421875 -0.28125q-1.609375 -0.171875 -2.15625 -0.65625q-0.53125 -0.46875 -0.53125 -1.171875q0 -0.703125 0.59375 -1.1875q0.828125 -0.640625 2.15625 -0.640625q0.453125 0 0.875 0.09375q0.4375 0.078125 0.828125 0.25q0.125 -0.078125 0.234375 -0.125q0.109375 -0.046875 0.1875 -0.046875q0.28125 0 0.453125 0.203125q0.1875 0.203125 0.1875 0.6875l0 0.328125q0 0.4375 -0.09375 0.59375q-0.21875 0.296875 -0.578125 0.296875q-0.234375 0 -0.421875 -0.140625q-0.171875 -0.15625 -0.234375 -0.40625zm5.185684 1.328125l0 1.6875l0.484375 0q0.46875 0 0.671875 0.1875q0.21875 0.171875 0.21875 0.484375q0 0.28125 -0.21875 0.46875q-0.203125 0.1875 -0.671875 0.1875l-2.03125 0q-0.484375 0 -0.6875 -0.1875q-0.203125 -0.1875 -0.203125 -0.484375q0 -0.296875 0.203125 -0.46875q0.21875 -0.1875 0.6875 -0.1875l0.203125 0l0 -5.21875l-0.203125 0q-0.484375 0 -0.6875 -0.1875q-0.203125 -0.1875 -0.203125 -0.484375q0 -0.296875 0.203125 -0.484375q0.203125 -0.1875 0.6875 -0.1875l3.015625 0q1.421875 0 2.1875 0.703125q0.78125 0.703125 0.78125 1.703125q0 0.625 -0.359375 1.140625q-0.359375 0.5 -1.09375 0.90625q0.421875 0.359375 0.90625 0.9375q0.296875 0.375 0.796875 1.171875q0.515625 0 0.671875 0.09375q0.296875 0.203125 0.296875 0.578125q0 0.28125 -0.203125 0.46875q-0.203125 0.1875 -0.6875 0.1875l-0.765625 0q-1.609375 -2.5 -2.6875 -3.015625l-1.3125 0zm0 -1.328125l1.03125 0q0.59375 0 1.046875 -0.171875q0.609375 -0.234375 0.8125 -0.5q0.21875 -0.265625 0.21875 -0.515625q0 -0.375 -0.40625 -0.6875q-0.40625 -0.328125 -1.171875 -0.328125l-1.53125 0l0 2.203125zm12.716934 2.0625l-5.46875 0q0.203125 0.53125 0.734375 0.84375q0.53125 0.3125 1.4375 0.3125q0.75 0 1.96875 -0.3125q0.515625 -0.125 0.703125 -0.125q0.265625 0 0.453125 0.1875q0.1875 0.1875 0.1875 0.46875q0 0.265625 -0.203125 0.4375q-0.265625 0.25 -1.28125 0.46875q-1.0 0.21875 -1.921875 0.21875q-1.609375 0 -2.578125 -0.90625q-0.953125 -0.90625 -0.953125 -2.234375q0 -1.40625 1.03125 -2.28125q1.046875 -0.875 2.40625 -0.875q0.8125 0 1.484375 0.28125q0.6875 0.28125 1.015625 0.609375q0.46875 0.484375 0.78125 1.203125q0.203125 0.484375 0.203125 1.140625l0 0.5625zm-1.46875 -1.328125q-0.3125 -0.578125 -0.8125 -0.859375q-0.484375 -0.28125 -1.171875 -0.28125q-0.671875 0 -1.171875 0.28125q-0.5 0.28125 -0.8125 0.859375l3.96875 0zm4.466934 2.875l0 2.1875l0.796875 0q0.484375 0 0.6875 0.1875q0.203125 0.1875 0.203125 0.484375q0 0.296875 -0.203125 0.46875q-0.203125 0.1875 -0.6875 0.1875l-2.359375 0q-0.484375 0 -0.6875 -0.1875q-0.203125 -0.171875 -0.203125 -0.46875q0 -0.296875 0.203125 -0.484375q0.21875 -0.1875 0.6875 -0.1875l0.234375 0l0 -6.03125l-0.234375 0q-0.484375 0 -0.6875 -0.1875q-0.203125 -0.1875 -0.203125 -0.484375q0 -0.28125 0.203125 -0.46875q0.203125 -0.1875 0.6875 -0.1875l1.5625 0l0 0.453125q0.46875 -0.3125 0.96875 -0.46875q0.5 -0.15625 1.03125 -0.15625q1.359375 0 2.328125 0.921875q0.96875 0.921875 0.96875 2.125q0 1.3125 -1.140625 2.171875q-0.953125 0.71875 -2.140625 0.71875q-0.515625 0 -1.015625 -0.140625q-0.5 -0.15625 -1.0 -0.453125zm3.953125 -2.296875q0 -0.28125 -0.21875 -0.703125q-0.21875 -0.4375 -0.6875 -0.71875q-0.453125 -0.296875 -1.0625 -0.296875q-1.0 0 -1.59375 0.75q-0.390625 0.515625 -0.390625 0.984375q0 0.53125 0.5625 1.046875q0.578125 0.5 1.421875 0.5q0.84375 0 1.40625 -0.5q0.5625 -0.5 0.5625 -1.0625zm9.170059 0.1875q0 0.765625 -0.4375 1.484375q-0.421875 0.71875 -1.265625 1.15625q-0.84375 0.421875 -1.75 0.421875q-0.921875 0 -1.75 -0.421875q-0.828125 -0.421875 -1.265625 -1.140625q-0.4375 -0.71875 -0.4375 -1.515625q0 -0.796875 0.4375 -1.5625q0.4375 -0.78125 1.265625 -1.21875q0.84375 -0.4375 1.75 -0.4375q0.90625 0 1.75 0.453125q0.84375 0.4375 1.265625 1.203125q0.4375 0.765625 0.4375 1.578125zm-1.34375 0q0 -0.640625 -0.453125 -1.171875q-0.640625 -0.734375 -1.65625 -0.734375q-0.90625 0 -1.515625 0.578125q-0.609375 0.578125 -0.609375 1.34375q0 0.625 0.609375 1.171875q0.625 0.53125 1.515625 0.53125q0.890625 0 1.5 -0.53125q0.609375 -0.546875 0.609375 -1.1875zm7.310684 -1.5q-0.328125 -0.203125 -0.6875 -0.296875q-0.34375 -0.109375 -0.734375 -0.109375q-0.78125 0 -1.234375 0.25q-0.203125 0.109375 -0.203125 0.25q0 0.140625 0.265625 0.28125q0.21875 0.109375 0.9375 0.203125q1.328125 0.1875 1.84375 0.375q0.6875 0.234375 1.046875 0.71875q0.375 0.46875 0.375 1.0q0 0.703125 -0.625 1.1875q-0.90625 0.703125 -2.34375 0.703125q-0.578125 0 -1.078125 -0.109375q-0.484375 -0.09375 -0.890625 -0.296875q-0.109375 0.09375 -0.21875 0.140625q-0.109375 0.046875 -0.21875 0.046875q-0.3125 0 -0.5 -0.203125q-0.1875 -0.21875 -0.1875 -0.6875l0 -0.453125q0 -0.484375 0.1875 -0.6875q0.1875 -0.203125 0.484375 -0.203125q0.234375 0 0.390625 0.140625q0.171875 0.125 0.265625 0.453125q0.296875 0.25 0.71875 0.390625q0.4375 0.125 1.0 0.125q0.921875 0 1.421875 -0.28125q0.25 -0.140625 0.25 -0.296875q0 -0.265625 -0.34375 -0.4375q-0.34375 -0.15625 -1.421875 -0.28125q-1.609375 -0.171875 -2.15625 -0.65625q-0.53125 -0.46875 -0.53125 -1.171875q0 -0.703125 0.59375 -1.1875q0.828125 -0.640625 2.15625 -0.640625q0.453125 0 0.875 0.09375q0.4375 0.078125 0.828125 0.25q0.125 -0.078125 0.234375 -0.125q0.109375 -0.046875 0.1875 -0.046875q0.28125 0 0.453125 0.203125q0.1875 0.203125 0.1875 0.6875l0 0.328125q0 0.4375 -0.09375 0.59375q-0.21875 0.296875 -0.578125 0.296875q-0.234375 0 -0.421875 -0.140625q-0.171875 -0.15625 -0.234375 -0.40625zm7.045059 -4.09375l0 1.40625l-1.59375 0l0 -1.40625l1.59375 0zm0.171875 2.53125l0 4.578125l1.609375 0q0.46875 0 0.671875 0.1875q0.21875 0.171875 0.21875 0.484375q0 0.28125 -0.21875 0.46875q-0.203125 0.1875 -0.671875 0.1875l-4.546875 0q-0.46875 0 -0.6875 -0.1875q-0.203125 -0.1875 -0.203125 -0.484375q0 -0.296875 0.203125 -0.46875q0.21875 -0.1875 0.6875 -0.1875l1.609375 0l0 -3.25l-1.078125 0q-0.46875 0 -0.6875 -0.1875q-0.203125 -0.1875 -0.203125 -0.484375q0 -0.28125 0.203125 -0.46875q0.203125 -0.1875 0.6875 -0.1875l2.40625 0zm7.013809 1.328125l0 2.671875q0 0.4375 0.171875 0.578125q0.28125 0.203125 0.984375 0.203125q1.015625 0 1.875 -0.4375q0.34375 -0.15625 0.53125 -0.15625q0.25 0 0.4375 0.203125q0.203125 0.1875 0.203125 0.46875q0 0.25 -0.203125 0.4375q-0.328125 0.3125 -1.265625 0.578125q-0.9375 0.25 -1.578125 0.25q-1.25 0 -1.875 -0.53125q-0.609375 -0.546875 -0.609375 -1.328125l0 -2.9375l-0.484375 0q-0.484375 0 -0.6875 -0.1875q-0.203125 -0.1875 -0.203125 -0.484375q0 -0.28125 0.203125 -0.46875q0.203125 -0.1875 0.6875 -0.1875l0.484375 0l0 -1.203125q0 -0.484375 0.171875 -0.6875q0.1875 -0.203125 0.484375 -0.203125q0.296875 0 0.484375 0.203125q0.1875 0.203125 0.1875 0.6875l0 1.203125l2.46875 0q0.484375 0 0.6875 0.1875q0.203125 0.1875 0.203125 0.484375q0 0.28125 -0.203125 0.46875q-0.203125 0.1875 -0.6875 0.1875l-2.46875 0zm11.795067 1.734375q0 0.765625 -0.4375 1.484375q-0.421875 0.71875 -1.265625 1.15625q-0.8437576 0.421875 -1.7500076 0.421875q-0.921875 0 -1.75 -0.421875q-0.828125 -0.421875 -1.265625 -1.140625q-0.4375 -0.71875 -0.4375 -1.515625q0 -0.796875 0.4375 -1.5625q0.4375 -0.78125 1.265625 -1.21875q0.84375 -0.4375 1.75 -0.4375q0.90625 0 1.7500076 0.453125q0.84375 0.4375 1.265625 1.203125q0.4375 0.765625 0.4375 1.578125zm-1.34375 0q0 -0.640625 -0.453125 -1.171875q-0.640625 -0.734375 -1.6562576 -0.734375q-0.90625 0 -1.515625 0.578125q-0.609375 0.578125 -0.609375 1.34375q0 0.625 0.609375 1.171875q0.625 0.53125 1.515625 0.53125q0.890625 0 1.5000076 -0.53125q0.609375 -0.546875 0.609375 -1.1875zm5.591934 -3.0625l0 0.828125q0.84375 -0.609375 1.328125 -0.796875q0.484375 -0.203125 0.90625 -0.203125q0.65625 0 1.265625 0.46875q0.421875 0.328125 0.421875 0.671875q0 0.28125 -0.203125 0.484375q-0.203125 0.203125 -0.484375 0.203125q-0.25 0 -0.53125 -0.25q-0.265625 -0.25 -0.46875 -0.25q-0.28125 0 -0.84375 0.359375q-0.546875 0.34375 -1.390625 1.046875l0 2.015625l1.90625 0q0.484375 0 0.6875 0.1875q0.203125 0.171875 0.203125 0.484375q0 0.28125 -0.203125 0.46875q-0.203125 0.1875 -0.6875 0.1875l-4.03125 0q-0.484375 0 -0.6875 -0.1875q-0.203125 -0.1875 -0.203125 -0.484375q0 -0.296875 0.203125 -0.46875q0.203125 -0.1875 0.6875 -0.1875l0.796875 0l0 -3.25l-0.484375 0q-0.484375 0 -0.6875 -0.1875q-0.203125 -0.1875 -0.203125 -0.484375q0 -0.28125 0.203125 -0.46875q0.203125 -0.1875 0.6875 -0.1875l1.8125 0zm7.529419 5.859375l-2.3125 -4.53125q-0.3125 -0.03125 -0.484375 -0.21875q-0.171875 -0.1875 -0.171875 -0.4375q0 -0.296875 0.203125 -0.484375q0.203125 -0.1875 0.6875 -0.1875l1.21875 0q0.484375 0 0.6875 0.1875q0.203125 0.1875 0.203125 0.484375q0 0.28125 -0.203125 0.46875q-0.203125 0.1875 -0.65625 0.1875l1.578125 3.0625l1.5625 -3.0625q-0.421875 0 -0.640625 -0.1875q-0.203125 -0.1875 -0.203125 -0.484375q0 -0.28125 0.203125 -0.46875q0.21875 -0.1875 0.6875 -0.1875l1.265625 0q0.46875 0 0.671875 0.1875q0.203125 0.1875 0.203125 0.484375q0 0.265625 -0.171875 0.453125q-0.171875 0.1875 -0.515625 0.203125l-3.0625 6.03125q0.5 0 0.65625 0.09375q0.3125 0.203125 0.3125 0.578125q0 0.296875 -0.203125 0.46875q-0.203125 0.1875 -0.6875 0.1875l-2.90625 0q-0.484375 0 -0.6875 -0.1875q-0.203125 -0.171875 -0.203125 -0.46875q0 -0.296875 0.203125 -0.484375q0.203125 -0.1875 0.6875 -0.1875l1.328125 0l0.75 -1.5z" fill-rule="nonzero"/><path fill="#cfe2f3" d="m57.173412 31.385826l0 0c0 -15.664013 12.204647 -28.362204 27.259846 -28.362204l0 0c7.229759 0 14.163406 2.9881525 19.27562 8.307098c5.112213 5.318944 7.9842224 12.532983 7.9842224 20.055107l0 0c0 15.664013 -12.204651 28.362206 -27.259842 28.362206l0 0c-15.055199 0 -27.259846 -12.698193 -27.259846 -28.362206z" fill-rule="evenodd"/><path stroke="#4e8aeb" stroke-width="3.0" stroke-linejoin="round" stroke-linecap="butt" d="m57.173412 31.385826l0 0c0 -15.664013 12.204647 -28.362204 27.259846 -28.362204l0 0c7.229759 0 14.163406 2.9881525 19.27562 8.307098c5.112213 5.318944 7.9842224 12.532983 7.9842224 20.055107l0 0c0 15.664013 -12.204651 28.362206 -27.259842 28.362206l0 0c-15.055199 0 -27.259846 -12.698193 -27.259846 -28.362206z" fill-rule="evenodd"/><path fill="#cfe2f3" d="m101.42728 40.162632l0 0c-3.8216858 8.244152 -12.474274 12.67598 -20.972725 10.742161c-8.498451 -1.9338188 -14.653778 -9.735176 -14.919708 -18.909462c-0.26593018 -9.174288 5.4260406 -17.358437 13.796585 -19.837301c8.370544 -2.4788647 17.263618 1.3860493 21.555641 9.368044l-8.601128 5.1553555c-1.9510803 -4.07251 -6.15049 -6.1087666 -10.141632 -4.9175854c-3.9911423 1.1911793 -6.7253647 5.2968216 -6.6031876 9.915178c0.122177124 4.6183567 3.0686493 8.535982 7.1157837 9.461119c4.047127 0.92513657 8.131546 -1.385292 9.86393 -5.579712z" fill-rule="evenodd"/><path stroke="#4e8aeb" stroke-width="3.0" stroke-linejoin="round" stroke-linecap="butt" d="m101.42728 40.162632l0 0c-3.8216858 8.244152 -12.474274 12.67598 -20.972725 10.742161c-8.498451 -1.9338188 -14.653778 -9.735176 -14.919708 -18.909462c-0.26593018 -9.174288 5.4260406 -17.358437 13.796585 -19.837301c8.370544 -2.4788647 17.263618 1.3860493 21.555641 9.368044l-8.601128 5.1553555c-1.9510803 -4.07251 -6.15049 -6.1087666 -10.141632 -4.9175854c-3.9911423 1.1911793 -6.7253647 5.2968216 -6.6031876 9.915178c0.122177124 4.6183567 3.0686493 8.535982 7.1157837 9.461119c4.047127 0.92513657 8.131546 -1.385292 9.86393 -5.579712z" fill-rule="evenodd"/><path fill="#ebe3fd" d="m94.59074 38.902885l0 23.653545l21.937004 0l-10.753281 -11.611549l10.753281 -12.041996z" fill-rule="evenodd"/><path stroke="#8b6bda" stroke-width="3.0" stroke-linejoin="round" stroke-linecap="butt" d="m94.59074 38.902885l0 23.653545l21.937004 0l-10.753281 -11.611549l10.753281 -12.041996z" fill-rule="evenodd"/><path fill="#000000" fill-opacity="0.0" d="m3.023622 167.7979l168.09448 0l0 25.70079l-168.09448 0z" fill-rule="evenodd"/><path fill="#ffffff" d="m9.714022 186.58228l0 1.6875l0.484375 0q0.46875 0 0.671875 0.1875q0.21875 0.171875 0.21875 0.484375q0 0.28125 -0.21875 0.46875q-0.203125 0.1875 -0.671875 0.1875l-2.03125 0q-0.48437548 0 -0.6875005 -0.1875q-0.203125 -0.1875 -0.203125 -0.484375q0 -0.296875 0.203125 -0.46875q0.21875 -0.1875 0.6875005 -0.1875l0.203125 0l0 -5.21875l-0.203125 0q-0.48437548 0 -0.6875005 -0.1875q-0.203125 -0.1875 -0.203125 -0.484375q0 -0.296875 0.203125 -0.484375q0.203125 -0.1875 0.6875005 -0.1875l3.015625 0q1.421875 0 2.1875 0.703125q0.78125 0.703125 0.78125 1.703125q0 0.625 -0.359375 1.140625q-0.359375 0.5 -1.09375 0.90625q0.421875 0.359375 0.90625 0.9375q0.296875 0.375 0.796875 1.171875q0.515625 0 0.671875 0.09375q0.296875 0.203125 0.296875 0.578125q0 0.28125 -0.203125 0.46875q-0.203125 0.1875 -0.6875 0.1875l-0.765625 0q-1.609375 -2.5 -2.6875 -3.015625l-1.3125 0zm0 -1.328125l1.03125 0q0.59375 0 1.046875 -0.171875q0.609375 -0.234375 0.8125 -0.5q0.21875 -0.265625 0.21875 -0.515625q0 -0.375 -0.40625 -0.6875q-0.40625 -0.328125 -1.171875 -0.328125l-1.53125 0l0 2.203125zm12.716934 2.0625l-5.46875 0q0.203125 0.53125 0.734375 0.84375q0.53125 0.3125 1.4375 0.3125q0.75 0 1.96875 -0.3125q0.515625 -0.125 0.703125 -0.125q0.265625 0 0.453125 0.1875q0.1875 0.1875 0.1875 0.46875q0 0.265625 -0.203125 0.4375q-0.265625 0.25 -1.28125 0.46875q-1.0 0.21875 -1.921875 0.21875q-1.609375 0 -2.578125 -0.90625q-0.953125 -0.90625 -0.953125 -2.234375q0 -1.40625 1.03125 -2.28125q1.046875 -0.875 2.40625 -0.875q0.8125 0 1.484375 0.28125q0.6875 0.28125 1.015625 0.609375q0.46875 0.484375 0.78125 1.203125q0.203125 0.484375 0.203125 1.140625l0 0.5625zm-1.46875 -1.328125q-0.3125 -0.578125 -0.8125 -0.859375q-0.484375 -0.28125 -1.171875 -0.28125q-0.671875 0 -1.171875 0.28125q-0.5 0.28125 -0.8125 0.859375l3.96875 0zm7.560684 -0.734375q-0.328125 -0.203125 -0.6875 -0.296875q-0.34375 -0.109375 -0.734375 -0.109375q-0.78125 0 -1.234375 0.25q-0.203125 0.109375 -0.203125 0.25q0 0.140625 0.265625 0.28125q0.21875 0.109375 0.9375 0.203125q1.328125 0.1875 1.84375 0.375q0.6875 0.234375 1.046875 0.71875q0.375 0.46875 0.375 1.0q0 0.703125 -0.625 1.1875q-0.90625 0.703125 -2.34375 0.703125q-0.578125 0 -1.078125 -0.109375q-0.484375 -0.09375 -0.890625 -0.296875q-0.109375 0.09375 -0.21875 0.140625q-0.109375 0.046875 -0.21875 0.046875q-0.3125 0 -0.5 -0.203125q-0.1875 -0.21875 -0.1875 -0.6875l0 -0.453125q0 -0.484375 0.1875 -0.6875q0.1875 -0.203125 0.484375 -0.203125q0.234375 0 0.390625 0.140625q0.171875 0.125 0.265625 0.453125q0.296875 0.25 0.71875 0.390625q0.4375 0.125 1.0 0.125q0.921875 0 1.421875 -0.28125q0.25 -0.140625 0.25 -0.296875q0 -0.265625 -0.34375 -0.4375q-0.34375 -0.15625 -1.421875 -0.28125q-1.609375 -0.171875 -2.15625 -0.65625q-0.53125 -0.46875 -0.53125 -1.171875q0 -0.703125 0.59375 -1.1875q0.828125 -0.640625 2.15625 -0.640625q0.453125 0 0.875 0.09375q0.4375 0.078125 0.828125 0.25q0.125 -0.078125 0.234375 -0.125q0.109375 -0.046875 0.1875 -0.046875q0.28125 0 0.453125 0.203125q0.1875 0.203125 0.1875 0.6875l0 0.328125q0 0.4375 -0.09375 0.59375q-0.21875 0.296875 -0.578125 0.296875q-0.234375 0 -0.421875 -0.140625q-0.171875 -0.15625 -0.234375 -0.40625zm9.388807 -1.5625l0 4.578125q0.421875 0 0.625 0.1875q0.203125 0.1875 0.203125 0.484375q0 0.28125 -0.203125 0.46875q-0.203125 0.1875 -0.6875 0.1875l-1.265625 0l0 -0.3125q-0.578125 0.265625 -1.09375 0.390625q-0.515625 0.140625 -0.984375 0.140625q-0.65625 0 -1.140625 -0.28125q-0.484375 -0.28125 -0.765625 -0.765625q-0.203125 -0.34375 -0.203125 -0.875l0 -2.875l-0.21875 0q-0.4843731 0 -0.7031231 -0.1875q-0.203125 -0.1875 -0.203125 -0.484375q0 -0.28125 0.203125 -0.46875q0.21875 -0.1875 0.7031231 -0.1875l1.5625 0l0 3.96875q0 0.421875 0.203125 0.625q0.203125 0.1875 0.625 0.1875q0.40625 0 0.859375 -0.15625q0.46875 -0.15625 1.15625 -0.578125l0 -2.71875l-0.484375 0q-0.484375 0 -0.6875 -0.1875q-0.203125 -0.1875 -0.203125 -0.484375q0 -0.28125 0.203125 -0.46875q0.203125 -0.1875 0.6875 -0.1875l1.8125 0zm5.841934 -2.53125l0 7.109375l1.59375 0q0.484375 0 0.6875 0.1875q0.203125 0.171875 0.203125 0.484375q0 0.28125 -0.203125 0.46875q-0.203125 0.1875 -0.6875 0.1875l-4.53125 0q-0.484375 0 -0.6875 -0.1875q-0.203125 -0.1875 -0.203125 -0.484375q0 -0.296875 0.203125 -0.46875q0.203125 -0.1875 0.6875 -0.1875l1.59375 0l0 -5.78125l-1.0625 0q-0.484375 0 -0.703125 -0.1875q-0.203125 -0.1875 -0.203125 -0.484375q0 -0.28125 0.203125 -0.46875q0.21875 -0.1875 0.703125 -0.1875l2.40625 0zm6.998184 3.859375l0 2.671875q0 0.4375 0.171875 0.578125q0.28125 0.203125 0.984375 0.203125q1.015625 0 1.875 -0.4375q0.34375 -0.15625 0.53125 -0.15625q0.25 0 0.4375 0.203125q0.203125 0.1875 0.203125 0.46875q0 0.25 -0.203125 0.4375q-0.328125 0.3125 -1.265625 0.578125q-0.9375 0.25 -1.578125 0.25q-1.25 0 -1.875 -0.53125q-0.609375 -0.546875 -0.609375 -1.328125l0 -2.9375l-0.484375 0q-0.484375 0 -0.6875 -0.1875q-0.203125 -0.1875 -0.203125 -0.484375q0 -0.28125 0.203125 -0.46875q0.203125 -0.1875 0.6875 -0.1875l0.484375 0l0 -1.203125q0 -0.484375 0.171875 -0.6875q0.1875 -0.203125 0.484375 -0.203125q0.296875 0 0.484375 0.203125q0.1875 0.203125 0.1875 0.6875l0 1.203125l2.46875 0q0.484375 0 0.6875 0.1875q0.203125 0.1875 0.203125 0.484375q0 0.28125 -0.203125 0.46875q-0.203125 0.1875 -0.6875 0.1875l-2.46875 0zm8.966934 -1.96875l0 5.21875l0.90625 0q0.484375 0 0.6875 0.1875q0.203125 0.171875 0.203125 0.484375q0 0.28125 -0.203125 0.46875q-0.203125 0.1875 -0.6875 0.1875l-3.125 0q-0.484375 0 -0.6875 -0.1875q-0.203125 -0.1875 -0.203125 -0.484375q0 -0.296875 0.203125 -0.46875q0.203125 -0.1875 0.6875 -0.1875l0.890625 0l0 -5.21875l-1.4375 0l0 1.25q0 0.484375 -0.1875 0.6875q-0.1875 0.203125 -0.484375 0.203125q-0.296875 0 -0.484375 -0.203125q-0.1875 -0.203125 -0.1875 -0.6875l0 -2.59375l6.90625 0l0 2.59375q0 0.484375 -0.1875 0.6875q-0.171875 0.203125 -0.46875 0.203125q-0.296875 0 -0.484375 -0.203125q-0.1875 -0.203125 -0.1875 -0.6875l0 -1.25l-1.46875 0zm6.607559 6.5l-2.3125 -4.53125q-0.3125 -0.03125 -0.484375 -0.21875q-0.171875 -0.1875 -0.171875 -0.4375q0 -0.296875 0.203125 -0.484375q0.203125 -0.1875 0.6875 -0.1875l1.21875 0q0.484375 0 0.6875 0.1875q0.203125 0.1875 0.203125 0.484375q0 0.28125 -0.203125 0.46875q-0.203125 0.1875 -0.65625 0.1875l1.578125 3.0625l1.5625 -3.0625q-0.421875 0 -0.640625 -0.1875q-0.203125 -0.1875 -0.203125 -0.484375q0 -0.28125 0.203125 -0.46875q0.21875 -0.1875 0.6875 -0.1875l1.265625 0q0.46875 0 0.671875 0.1875q0.203125 0.1875 0.203125 0.484375q0 0.265625 -0.171875 0.453125q-0.171875 0.1875 -0.515625 0.203125l-3.0625 6.03125q0.5 0 0.65625 0.09375q0.3125 0.203125 0.3125 0.578125q0 0.296875 -0.203125 0.46875q-0.203125 0.1875 -0.6875 0.1875l-2.90625 0q-0.484375 0 -0.6875 -0.1875q-0.203125 -0.171875 -0.203125 -0.46875q0 -0.296875 0.203125 -0.484375q0.203125 -0.1875 0.6875 -0.1875l1.328125 0l0.75 -1.5zm7.091934 -0.6875l0 2.1875l0.796875 0q0.484375 0 0.6875 0.1875q0.203125 0.1875 0.203125 0.484375q0 0.296875 -0.203125 0.46875q-0.203125 0.1875 -0.6875 0.1875l-2.359375 0q-0.484375 0 -0.6875 -0.1875q-0.203125 -0.171875 -0.203125 -0.46875q0 -0.296875 0.203125 -0.484375q0.21875 -0.1875 0.6875 -0.1875l0.234375 0l0 -6.03125l-0.234375 0q-0.484375 0 -0.6875 -0.1875q-0.203125 -0.1875 -0.203125 -0.484375q0 -0.28125 0.203125 -0.46875q0.203125 -0.1875 0.6875 -0.1875l1.5625 0l0 0.453125q0.46875 -0.3125 0.96875 -0.46875q0.5 -0.15625 1.03125 -0.15625q1.359375 0 2.328125 0.921875q0.96875 0.921875 0.96875 2.125q0 1.3125 -1.140625 2.171875q-0.953125 0.71875 -2.140625 0.71875q-0.515625 0 -1.015625 -0.140625q-0.5 -0.15625 -1.0 -0.453125zm3.953125 -2.296875q0 -0.28125 -0.21875 -0.703125q-0.21875 -0.4375 -0.6875 -0.71875q-0.453125 -0.296875 -1.0625 -0.296875q-1.0 0 -1.59375 0.75q-0.390625 0.515625 -0.390625 0.984375q0 0.53125 0.5625 1.046875q0.578125 0.5 1.421875 0.5q0.84375 0 1.40625 -0.5q0.5625 -0.5 0.5625 -1.0625zm9.045059 0.75l-5.46875 0q0.203125 0.53125 0.734375 0.84375q0.53125 0.3125 1.4375 0.3125q0.75 0 1.96875 -0.3125q0.515625 -0.125 0.703125 -0.125q0.265625 0 0.453125 0.1875q0.1875 0.1875 0.1875 0.46875q0 0.265625 -0.203125 0.4375q-0.265625 0.25 -1.28125 0.46875q-1.0 0.21875 -1.921875 0.21875q-1.609375 0 -2.578125 -0.90625q-0.953125 -0.90625 -0.953125 -2.234375q0 -1.40625 1.03125 -2.28125q1.046875 -0.875 2.40625 -0.875q0.8125 0 1.484375 0.28125q0.6875 0.28125 1.015625 0.609375q0.46875 0.484375 0.78125 1.203125q0.203125 0.484375 0.203125 1.140625l0 0.5625zm-1.46875 -1.328125q-0.3125 -0.578125 -0.8125 -0.859375q-0.484375 -0.28125 -1.171875 -0.28125q-0.671875 0 -1.171875 0.28125q-0.5 0.28125 -0.8125 0.859375l3.96875 0zm4.748184 0.59375l0 1.6875l0.484375 0q0.46875 0 0.671875 0.1875q0.21875 0.171875 0.21875 0.484375q0 0.28125 -0.21875 0.46875q-0.203125 0.1875 -0.671875 0.1875l-2.03125 0q-0.484375 0 -0.6875 -0.1875q-0.203125 -0.1875 -0.203125 -0.484375q0 -0.296875 0.203125 -0.46875q0.21875 -0.1875 0.6875 -0.1875l0.203125 0l0 -5.21875l-0.203125 0q-0.484375 0 -0.6875 -0.1875q-0.203125 -0.1875 -0.203125 -0.484375q0 -0.296875 0.203125 -0.484375q0.203125 -0.1875 0.6875 -0.1875l3.015625 0q1.421875 0 2.1875 0.703125q0.78125 0.703125 0.78125 1.703125q0 0.625 -0.359375 1.140625q-0.359375 0.5 -1.09375 0.90625q0.421875 0.359375 0.90625 0.9375q0.296875 0.375 0.796875 1.171875q0.515625 0 0.671875 0.09375q0.296875 0.203125 0.296875 0.578125q0 0.28125 -0.203125 0.46875q-0.203125 0.1875 -0.6875 0.1875l-0.765625 0q-1.609375 -2.5 -2.6875 -3.015625l-1.3125 0zm0 -1.328125l1.03125 0q0.59375 0 1.046875 -0.171875q0.609375 -0.234375 0.8125 -0.5q0.21875 -0.265625 0.21875 -0.515625q0 -0.375 -0.40625 -0.6875q-0.40625 -0.328125 -1.171875 -0.328125l-1.53125 0l0 2.203125zm12.716934 2.0625l-5.46875 0q0.203125 0.53125 0.734375 0.84375q0.53125 0.3125 1.4375 0.3125q0.75 0 1.96875 -0.3125q0.515625 -0.125 0.703125 -0.125q0.265625 0 0.453125 0.1875q0.1875 0.1875 0.1875 0.46875q0 0.265625 -0.203125 0.4375q-0.265625 0.25 -1.28125 0.46875q-1.0 0.21875 -1.921875 0.21875q-1.609375 0 -2.578125 -0.90625q-0.953125 -0.90625 -0.953125 -2.234375q0 -1.40625 1.03125 -2.28125q1.046875 -0.875 2.40625 -0.875q0.8125 0 1.484375 0.28125q0.6875 0.28125 1.015625 0.609375q0.46875 0.484375 0.78125 1.203125q0.203125 0.484375 0.203125 1.140625l0 0.5625zm-1.46875 -1.328125q-0.3125 -0.578125 -0.8125 -0.859375q-0.484375 -0.28125 -1.171875 -0.28125q-0.671875 0 -1.171875 0.28125q-0.5 0.28125 -0.8125 0.859375l3.96875 0zm4.466934 2.875l0 2.1875l0.796875 0q0.484375 0 0.6875 0.1875q0.203125 0.1875 0.203125 0.484375q0 0.296875 -0.203125 0.46875q-0.203125 0.1875 -0.6875 0.1875l-2.359375 0q-0.484375 0 -0.6875 -0.1875q-0.203125 -0.171875 -0.203125 -0.46875q0 -0.296875 0.203125 -0.484375q0.21875 -0.1875 0.6875 -0.1875l0.234375 0l0 -6.03125l-0.234375 0q-0.484375 0 -0.6875 -0.1875q-0.203125 -0.1875 -0.203125 -0.484375q0 -0.28125 0.203125 -0.46875q0.203125 -0.1875 0.6875 -0.1875l1.5625 0l0 0.453125q0.46875 -0.3125 0.96875 -0.46875q0.5 -0.15625 1.03125 -0.15625q1.359375 0 2.328125 0.921875q0.96875 0.921875 0.96875 2.125q0 1.3125 -1.140625 2.171875q-0.953125 0.71875 -2.140625 0.71875q-0.515625 0 -1.015625 -0.140625q-0.5 -0.15625 -1.0 -0.453125zm3.953125 -2.296875q0 -0.28125 -0.21875 -0.703125q-0.21875 -0.4375 -0.6875 -0.71875q-0.453125 -0.296875 -1.0625 -0.296875q-1.0 0 -1.59375 0.75q-0.390625 0.515625 -0.390625 0.984375q0 0.53125 0.5625 1.046875q0.578125 0.5 1.421875 0.5q0.84375 0 1.40625 -0.5q0.5625 -0.5 0.5625 -1.0625zm9.170059 0.1875q0 0.765625 -0.4375 1.484375q-0.421875 0.71875 -1.265625 1.15625q-0.84375 0.421875 -1.75 0.421875q-0.921875 0 -1.75 -0.421875q-0.828125 -0.421875 -1.265625 -1.140625q-0.4375 -0.71875 -0.4375 -1.515625q0 -0.796875 0.4375 -1.5625q0.4375 -0.78125 1.265625 -1.21875q0.84375 -0.4375 1.75 -0.4375q0.90625 0 1.75 0.453125q0.84375 0.4375 1.265625 1.203125q0.4375 0.765625 0.4375 1.578125zm-1.34375 0q0 -0.640625 -0.453125 -1.171875q-0.640625 -0.734375 -1.65625 -0.734375q-0.90625 0 -1.515625 0.578125q-0.609375 0.578125 -0.609375 1.34375q0 0.625 0.609375 1.171875q0.625 0.53125 1.515625 0.53125q0.890625 0 1.5 -0.53125q0.609375 -0.546875 0.609375 -1.1875zm7.310684 -1.5q-0.328125 -0.203125 -0.6875 -0.296875q-0.34375 -0.109375 -0.734375 -0.109375q-0.78125 0 -1.234375 0.25q-0.203125 0.109375 -0.203125 0.25q0 0.140625 0.265625 0.28125q0.21875 0.109375 0.9375 0.203125q1.328125 0.1875 1.84375 0.375q0.6875 0.234375 1.046875 0.71875q0.375 0.46875 0.375 1.0q0 0.703125 -0.625 1.1875q-0.90625 0.703125 -2.34375 0.703125q-0.578125 0 -1.078125 -0.109375q-0.484375 -0.09375 -0.890625 -0.296875q-0.109375 0.09375 -0.21875 0.140625q-0.109375 0.046875 -0.21875 0.046875q-0.3125 0 -0.5 -0.203125q-0.1875 -0.21875 -0.1875 -0.6875l0 -0.453125q0 -0.484375 0.1875 -0.6875q0.1875 -0.203125 0.484375 -0.203125q0.234375 0 0.390625 0.140625q0.171875 0.125 0.265625 0.453125q0.296875 0.25 0.71875 0.390625q0.4375 0.125 1.0 0.125q0.921875 0 1.421875 -0.28125q0.25 -0.140625 0.25 -0.296875q0 -0.265625 -0.34375 -0.4375q-0.34375 -0.15625 -1.421875 -0.28125q-1.609375 -0.171875 -2.15625 -0.65625q-0.53125 -0.46875 -0.53125 -1.171875q0 -0.703125 0.59375 -1.1875q0.828125 -0.640625 2.15625 -0.640625q0.453125 0 0.875 0.09375q0.4375 0.078125 0.828125 0.25q0.125 -0.078125 0.234375 -0.125q0.109375 -0.046875 0.1875 -0.046875q0.28125 0 0.453125 0.203125q0.1875 0.203125 0.1875 0.6875l0 0.328125q0 0.4375 -0.09375 0.59375q-0.21875 0.296875 -0.578125 0.296875q-0.234375 0 -0.421875 -0.140625q-0.171875 -0.15625 -0.234375 -0.40625zm7.045059 -4.09375l0 1.40625l-1.59375 0l0 -1.40625l1.59375 0zm0.171875 2.53125l0 4.578125l1.609375 0q0.46875 0 0.671875 0.1875q0.21875 0.171875 0.21875 0.484375q0 0.28125 -0.21875 0.46875q-0.203125 0.1875 -0.671875 0.1875l-4.546875 0q-0.46875 0 -0.6875 -0.1875q-0.203125 -0.1875 -0.203125 -0.484375q0 -0.296875 0.203125 -0.46875q0.21875 -0.1875 0.6875 -0.1875l1.609375 0l0 -3.25l-1.078125 0q-0.46875 0 -0.6875 -0.1875q-0.203125 -0.1875 -0.203125 -0.484375q0 -0.28125 0.203125 -0.46875q0.203125 -0.1875 0.6875 -0.1875l2.40625 0zm7.013809 1.328125l0 2.671875q0 0.4375 0.171875 0.578125q0.28125 0.203125 0.984375 0.203125q1.015625 0 1.875 -0.4375q0.34375 -0.15625 0.53125 -0.15625q0.25 0 0.4375 0.203125q0.203125 0.1875 0.203125 0.46875q0 0.25 -0.203125 0.4375q-0.328125 0.3125 -1.265625 0.578125q-0.9375 0.25 -1.578125 0.25q-1.25 0 -1.875 -0.53125q-0.609375 -0.546875 -0.609375 -1.328125l0 -2.9375l-0.484375 0q-0.484375 0 -0.6875 -0.1875q-0.203125 -0.1875 -0.203125 -0.484375q0 -0.28125 0.203125 -0.46875q0.203125 -0.1875 0.6875 -0.1875l0.484375 0l0 -1.203125q0 -0.484375 0.171875 -0.6875q0.1875 -0.203125 0.484375 -0.203125q0.296875 0 0.484375 0.203125q0.1875 0.203125 0.1875 0.6875l0 1.203125l2.46875 0q0.484375 0 0.6875 0.1875q0.203125 0.1875 0.203125 0.484375q0 0.28125 -0.203125 0.46875q-0.203125 0.1875 -0.6875 0.1875l-2.46875 0zm11.795059 1.734375q0 0.765625 -0.4375 1.484375q-0.421875 0.71875 -1.265625 1.15625q-0.84375 0.421875 -1.75 0.421875q-0.921875 0 -1.75 -0.421875q-0.828125 -0.421875 -1.265625 -1.140625q-0.4375 -0.71875 -0.4375 -1.515625q0 -0.796875 0.4375 -1.5625q0.4375 -0.78125 1.265625 -1.21875q0.84375 -0.4375 1.75 -0.4375q0.90625 0 1.75 0.453125q0.84375 0.4375 1.265625 1.203125q0.4375 0.765625 0.4375 1.578125zm-1.34375 0q0 -0.640625 -0.453125 -1.171875q-0.640625 -0.734375 -1.65625 -0.734375q-0.90625 0 -1.515625 0.578125q-0.609375 0.578125 -0.609375 1.34375q0 0.625 0.609375 1.171875q0.625 0.53125 1.515625 0.53125q0.890625 0 1.5 -0.53125q0.609375 -0.546875 0.609375 -1.1875zm5.591934 -3.0625l0 0.828125q0.84375 -0.609375 1.328125 -0.796875q0.484375 -0.203125 0.90625 -0.203125q0.65625 0 1.265625 0.46875q0.421875 0.328125 0.421875 0.671875q0 0.28125 -0.203125 0.484375q-0.203125 0.203125 -0.484375 0.203125q-0.25 0 -0.53125 -0.25q-0.265625 -0.25 -0.46875 -0.25q-0.28125 0 -0.84375 0.359375q-0.546875 0.34375 -1.390625 1.046875l0 2.015625l1.90625 0q0.484375 0 0.6875 0.1875q0.203125 0.171875 0.203125 0.484375q0 0.28125 -0.203125 0.46875q-0.203125 0.1875 -0.6875 0.1875l-4.03125 0q-0.484375 0 -0.6875 -0.1875q-0.203125 -0.1875 -0.203125 -0.484375q0 -0.296875 0.203125 -0.46875q0.203125 -0.1875 0.6875 -0.1875l0.796875 0l0 -3.25l-0.484375 0q-0.484375 0 -0.6875 -0.1875q-0.203125 -0.1875 -0.203125 -0.484375q0 -0.28125 0.203125 -0.46875q0.203125 -0.1875 0.6875 -0.1875l1.8125 0zm7.529434 5.859375l-2.3125 -4.53125q-0.3125 -0.03125 -0.484375 -0.21875q-0.171875 -0.1875 -0.171875 -0.4375q0 -0.296875 0.203125 -0.484375q0.203125 -0.1875 0.6875 -0.1875l1.21875 0q0.484375 0 0.6875 0.1875q0.203125 0.1875 0.203125 0.484375q0 0.28125 -0.203125 0.46875q-0.203125 0.1875 -0.65625 0.1875l1.578125 3.0625l1.5625 -3.0625q-0.421875 0 -0.640625 -0.1875q-0.203125 -0.1875 -0.203125 -0.484375q0 -0.28125 0.203125 -0.46875q0.21875 -0.1875 0.6875 -0.1875l1.265625 0q0.46875 0 0.671875 0.1875q0.203125 0.1875 0.203125 0.484375q0 0.265625 -0.171875 0.453125q-0.171875 0.1875 -0.515625 0.203125l-3.0625 6.03125q0.5 0 0.65625 0.09375q0.3125 0.203125 0.3125 0.578125q0 0.296875 -0.203125 0.46875q-0.203125 0.1875 -0.6875 0.1875l-2.90625 0q-0.484375 0 -0.6875 -0.1875q-0.203125 -0.171875 -0.203125 -0.46875q0 -0.296875 0.203125 -0.484375q0.203125 -0.1875 0.6875 -0.1875l1.328125 0l0.75 -1.5z" fill-rule="nonzero"/><path fill="#cfe2f3" d="m57.173412 136.46194l0 0c0 -15.664017 12.204647 -28.362206 27.259846 -28.362206l0 0c7.229759 0 14.163406 2.9881516 19.27562 8.307098c5.112213 5.318939 7.9842224 12.532982 7.9842224 20.055107l0 0c0 15.664017 -12.204651 28.362198 -27.259842 28.362198l0 0c-15.055199 0 -27.259846 -12.698181 -27.259846 -28.362198z" fill-rule="evenodd"/><path stroke="#4e8aeb" stroke-width="3.0" stroke-linejoin="round" stroke-linecap="butt" d="m57.173412 136.46194l0 0c0 -15.664017 12.204647 -28.362206 27.259846 -28.362206l0 0c7.229759 0 14.163406 2.9881516 19.27562 8.307098c5.112213 5.318939 7.9842224 12.532982 7.9842224 20.055107l0 0c0 15.664017 -12.204651 28.362198 -27.259842 28.362198l0 0c-15.055199 0 -27.259846 -12.698181 -27.259846 -28.362198z" fill-rule="evenodd"/><path fill="#cfe2f3" d="m101.42728 145.23875l0 0c-3.8216858 8.244141 -12.474274 12.675964 -20.972725 10.742157c-8.498451 -1.9338226 -14.653778 -9.735184 -14.919708 -18.90947c-0.26593018 -9.174286 5.4260406 -17.358429 13.796585 -19.837296c8.370544 -2.4788666 17.263618 1.3860474 21.555641 9.368042l-8.601128 5.1553497c-1.9510803 -4.072502 -6.15049 -6.108757 -10.141632 -4.9175797c-3.9911423 1.191185 -6.7253647 5.2968216 -6.6031876 9.915184c0.122177124 4.618347 3.0686493 8.53598 7.1157837 9.461121c4.047127 0.9251251 8.131546 -1.3852997 9.86393 -5.579727z" fill-rule="evenodd"/><path stroke="#4e8aeb" stroke-width="3.0" stroke-linejoin="round" stroke-linecap="butt" d="m101.42728 145.23875l0 0c-3.8216858 8.244141 -12.474274 12.675964 -20.972725 10.742157c-8.498451 -1.9338226 -14.653778 -9.735184 -14.919708 -18.90947c-0.26593018 -9.174286 5.4260406 -17.358429 13.796585 -19.837296c8.370544 -2.4788666 17.263618 1.3860474 21.555641 9.368042l-8.601128 5.1553497c-1.9510803 -4.072502 -6.15049 -6.108757 -10.141632 -4.9175797c-3.9911423 1.191185 -6.7253647 5.2968216 -6.6031876 9.915184c0.122177124 4.618347 3.0686493 8.53598 7.1157837 9.461121c4.047127 0.9251251 8.131546 -1.3852997 9.86393 -5.579727z" fill-rule="evenodd"/><path fill="#ebe3fd" d="m94.59074 143.979l0 23.65355l21.937004 0l-10.753281 -11.611557l10.753281 -12.041992z" fill-rule="evenodd"/><path stroke="#8b6bda" stroke-width="3.0" stroke-linejoin="round" stroke-linecap="butt" d="m94.59074 143.979l0 23.65355l21.937004 0l-10.753281 -11.611557l10.753281 -12.041992z" fill-rule="evenodd"/></g></svg>